<svg width="134" height="80" viewBox="0 0 134 80" fill="none" xmlns="http://www.w3.org/2000/svg">
<path d="M0.328543 77.9194C0.547571 78.0837 0.930871 78.1932 1.31417 78.1932C1.9165 78.1932 2.2998 77.8647 2.40931 77.4266C2.51883 76.9886 2.2998 76.7695 1.75223 76.5505C1.09514 76.2767 0.711843 75.8934 0.821357 75.2911C0.985628 74.5792 1.64271 74.0864 2.51883 74.0864C2.95688 74.0864 3.28543 74.1959 3.4497 74.3055L3.17591 74.7983C3.0664 74.7435 2.79261 74.5792 2.35456 74.5792C1.75223 74.5792 1.42369 74.9625 1.36893 75.2363C1.25941 75.6744 1.5332 75.8387 2.08077 76.1124C2.79261 76.3862 3.0664 76.7695 2.95688 77.4266C2.79261 78.1385 2.19028 78.7408 1.09514 78.7408C0.657085 78.7408 0.219028 78.6313 0 78.467L0.328543 77.9194Z" fill="white"></path>
<path d="M4.16115 77.1527C3.99687 77.9193 4.43493 78.2478 5.03726 78.2478C5.47532 78.2478 5.7491 78.1931 5.96813 78.0836V78.5216C5.7491 78.6311 5.3658 78.7406 4.87299 78.7406C3.88736 78.7406 3.4493 78.0835 3.61358 77.0979C3.77785 76.1123 4.54445 75.3457 5.47532 75.3457C6.5157 75.3457 6.62522 76.2766 6.46094 76.8789C6.46094 76.9884 6.40619 77.0979 6.40619 77.1527H4.16115ZM5.96813 76.7146C6.07764 76.3313 6.02289 75.7838 5.3658 75.7838C4.76347 75.7838 4.38017 76.3313 4.27066 76.7146H5.96813Z" fill="white"></path>
<path d="M9.14456 78.5216C8.98029 78.5764 8.59699 78.6859 8.15893 78.6859C7.1733 78.6859 6.68049 78.0288 6.89952 77.0432C7.11855 76.0575 7.9399 75.3457 8.98029 75.3457C9.30883 75.3457 9.63737 75.4552 9.74689 75.51L9.52786 75.948C9.41834 75.8933 9.19932 75.7838 8.87077 75.7838C8.15893 75.7838 7.61136 76.3313 7.44709 76.9884C7.28282 77.755 7.66612 78.1931 8.3232 78.1931C8.65174 78.1931 8.87077 78.0836 9.0898 78.0288L9.14456 78.5216Z" fill="white"></path>
<path d="M12.7041 77.7547C12.6494 78.0833 12.5946 78.357 12.5398 78.6308H12.047L12.1018 78.0833C11.8828 78.357 11.4995 78.6856 10.8971 78.6856C10.4043 78.6856 9.85675 78.4118 10.0758 77.2619L10.4591 75.4001H11.0614L10.6781 77.2071C10.5686 77.8095 10.6233 78.2475 11.1709 78.2475C11.5542 78.2475 11.8828 77.9737 12.047 77.7C12.1018 77.5904 12.1565 77.4809 12.1565 77.4262L12.5946 75.4549H13.1969L12.7041 77.7547Z" fill="white"></path>
<path d="M13.9627 76.4405C14.0174 76.0572 14.127 75.7287 14.127 75.4549H14.6198L14.5103 76.112C14.7293 75.6739 15.1673 75.4001 15.5506 75.4001C15.6054 75.4001 15.6601 75.4001 15.7149 75.4001L15.6054 75.9477C15.5506 75.9477 15.4959 75.9477 15.3864 75.9477C14.9483 75.9477 14.6198 76.2763 14.4555 76.7143C14.4007 76.7691 14.4007 76.8786 14.346 76.9881L13.9627 78.6856H13.3604L13.9627 76.4405Z" fill="white"></path>
<path d="M15.6606 78.631L16.3725 75.4003H16.9748L16.263 78.631H15.6606ZM17.1938 74.5242C17.1391 74.7432 16.9748 74.9075 16.7558 74.9075C16.5368 74.9075 16.4272 74.7432 16.482 74.5242C16.5368 74.3051 16.701 74.1409 16.9201 74.1409C17.1391 74.1409 17.2486 74.3051 17.1938 74.5242Z" fill="white"></path>
<path d="M18.836 74.5244L18.6169 75.4553H19.4383L19.3288 75.8933H18.5074L18.1241 77.6456C18.0146 78.0289 18.1241 78.2479 18.4527 78.2479C18.6169 78.2479 18.7265 78.2479 18.7812 78.1931L18.7265 78.6312C18.6169 78.686 18.3979 78.6859 18.1789 78.6859C17.9051 78.6859 17.6861 78.5764 17.5766 78.4669C17.467 78.3026 17.467 78.0289 17.5218 77.6456L17.9051 75.8933H17.467L17.5766 75.4553H18.0694L18.2336 74.6887L18.836 74.5244Z" fill="white"></path>
<path d="M19.4392 78.631L20.1511 75.4003H20.7534L20.0415 78.631H19.4392ZM20.9724 74.5242C20.9177 74.7432 20.7534 74.9075 20.5344 74.9075C20.3153 74.9075 20.2058 74.7432 20.2606 74.5242C20.3153 74.3051 20.4796 74.1409 20.6986 74.1409C20.9177 74.1409 21.0272 74.3051 20.9724 74.5242Z" fill="white"></path>
<path d="M21.6299 77.1527C21.4656 77.9193 21.9037 78.2478 22.506 78.2478C22.9441 78.2478 23.2179 78.1931 23.4369 78.0836V78.5216C23.2179 78.6311 22.8346 78.7406 22.3417 78.7406C21.3561 78.7406 20.9181 78.0835 21.0823 77.0979C21.2466 76.1123 22.0132 75.3457 22.9441 75.3457C23.9845 75.3457 24.094 76.2766 23.9297 76.8789C23.9297 76.9884 23.8749 77.0979 23.8749 77.1527H21.6299ZM23.4369 76.7146C23.5464 76.3313 23.4916 75.7838 22.8346 75.7838C22.2322 75.7838 21.8489 76.3313 21.7394 76.7146H23.4369Z" fill="white"></path>
<path d="M24.3666 78.0286C24.5308 78.1381 24.8046 78.2477 25.0784 78.2477C25.5165 78.2477 25.7355 78.0286 25.7902 77.7548C25.845 77.4811 25.7355 77.3168 25.2974 77.1525C24.7499 76.9335 24.5856 76.6049 24.6403 76.2216C24.7499 75.7288 25.2427 75.2908 25.9545 75.2908C26.2831 75.2908 26.5568 75.4003 26.7211 75.5098L26.5021 75.9478C26.3926 75.8931 26.1735 75.7836 25.8998 75.7836C25.5712 75.7836 25.2974 76.0026 25.2427 76.2216C25.1879 76.4954 25.3522 76.6049 25.7355 76.7692C26.2283 76.9882 26.5021 77.262 26.3926 77.7548C26.2831 78.3024 25.7355 78.7405 24.9689 78.7405C24.6403 78.7405 24.3118 78.631 24.0928 78.5214L24.3666 78.0286Z" fill="white"></path>
<path d="M30.1708 78.6311L30.2255 78.2478C30.0065 78.5216 29.6232 78.7406 29.1304 78.7406C28.4733 78.7406 28.2543 78.3026 28.3638 77.8098C28.5281 77.0432 29.2947 76.6051 30.5541 76.6051V76.5503C30.6088 76.2766 30.6636 75.7838 30.0065 75.7838C29.7327 75.7838 29.3494 75.8933 29.1304 76.0028L29.0756 75.6195C29.4042 75.4552 29.7875 75.3457 30.1708 75.3457C31.1564 75.3457 31.2659 76.0028 31.1017 76.6599L30.8279 77.8645C30.7731 78.1383 30.7184 78.4121 30.7184 78.6311H30.1708ZM30.3898 76.9884C29.7327 76.9884 29.0209 77.0979 28.8566 77.7003C28.8019 78.0836 28.9661 78.2478 29.2947 78.2478C29.7327 78.2478 30.0613 77.974 30.1708 77.7003C30.2255 77.6455 30.2255 77.5907 30.2255 77.536L30.3898 76.9884Z" fill="white"></path>
<path d="M32.0885 76.2766C32.1432 75.948 32.198 75.6742 32.2528 75.4004H32.7456L32.6908 75.948C32.9098 75.6195 33.3479 75.3457 33.8955 75.3457C34.3335 75.3457 34.9906 75.6195 34.7168 76.7146L34.2788 78.6311H33.6764L34.0597 76.7694C34.1693 76.2766 34.0597 75.8385 33.5122 75.8385C33.1289 75.8385 32.7456 76.1123 32.5813 76.4408C32.5265 76.4956 32.5265 76.6051 32.4718 76.7146L32.0337 78.6311H31.4314L32.0885 76.2766Z" fill="white"></path>
<path d="M39.0424 73.9219L38.221 77.8096C38.1662 78.0834 38.1115 78.412 38.0567 78.631H37.5092L37.6187 78.0834C37.3449 78.4667 36.9068 78.7405 36.3593 78.7405C35.5927 78.7405 35.0998 78.0834 35.3189 77.0978C35.5379 76.0026 36.3593 75.3456 37.1259 75.3456C37.6187 75.3456 37.8925 75.5646 38.002 75.8384L38.44 73.9219H39.0424ZM37.8925 76.7145C37.8925 76.6597 37.9472 76.5502 37.8925 76.4954C37.8925 76.1121 37.6187 75.8384 37.1806 75.8384C36.5783 75.8384 36.0855 76.3859 35.976 77.0978C35.8117 77.7549 36.0307 78.3024 36.6878 78.3024C37.0711 78.3024 37.5092 78.0286 37.6734 77.5906C37.7282 77.5358 37.7282 77.4263 37.7282 77.3168L37.8925 76.7145Z" fill="white"></path>
<path d="M43.2039 76.5504H41.4517L41.1231 78.1931H43.0396L42.9301 78.6859H40.4661L41.4517 74.1958H43.861L43.7515 74.6886H41.8897L41.5612 76.0575H43.3134L43.2039 76.5504Z" fill="white"></path>
<path d="M44.6823 75.4004L45.0109 76.1123C45.0656 76.2766 45.1751 76.4408 45.2299 76.6599C45.3942 76.4408 45.5037 76.2766 45.668 76.1123L46.2703 75.4004H46.9274L45.5037 76.9337L46.2703 78.5764H45.6132L45.2847 77.8645C45.1751 77.7002 45.1204 77.4812 45.0656 77.3169C44.9014 77.536 44.7918 77.7002 44.6276 77.8645L44.0252 78.5764H43.3682L44.8466 76.9337L44.08 75.3457H44.6823V75.4004Z" fill="white"></path>
<path d="M49.1158 78.5216C48.9515 78.5764 48.5682 78.6859 48.1301 78.6859C47.1445 78.6859 46.6517 78.0288 46.8707 77.0432C47.0897 76.0575 47.9111 75.3457 48.9515 75.3457C49.28 75.3457 49.6086 75.4552 49.7181 75.51L49.4991 75.948C49.3895 75.8933 49.1705 75.7838 48.842 75.7838C48.1301 75.7838 47.5826 76.3313 47.4183 76.9884C47.254 77.755 47.6373 78.1931 48.2944 78.1931C48.6229 78.1931 48.842 78.0836 49.061 78.0288L49.1158 78.5216Z" fill="white"></path>
<path d="M50.76 73.9219H51.3624L50.9243 75.9479C51.0338 75.7836 51.2529 75.6193 51.4171 75.5098C51.6362 75.4003 51.8552 75.3456 52.0742 75.3456C52.5123 75.3456 53.1146 75.6193 52.8956 76.7145L52.4575 78.631H51.8552L52.2385 76.7692C52.348 76.2764 52.2385 75.8384 51.6909 75.8384C51.3076 75.8384 50.9791 76.1122 50.76 76.4407C50.7053 76.4955 50.7053 76.605 50.6505 76.7145L50.2125 78.631H49.7744L50.76 73.9219Z" fill="white"></path>
<path d="M55.2506 78.6311L55.3054 78.2478C55.0864 78.5216 54.7031 78.7406 54.2102 78.7406C53.5532 78.7406 53.3341 78.3026 53.4436 77.8098C53.6079 77.0432 54.3745 76.6051 55.6339 76.6051V76.5503C55.6887 76.2766 55.7434 75.7838 55.0864 75.7838C54.8126 75.7838 54.4293 75.8933 54.2102 76.0028L54.1555 75.6195C54.484 75.4552 54.8673 75.3457 55.2506 75.3457C56.2363 75.3457 56.3458 76.0028 56.1815 76.6599L55.9077 77.8645C55.853 78.1383 55.7982 78.4121 55.7982 78.6311H55.2506ZM55.4697 76.9884C54.8126 76.9884 54.1007 77.0979 53.9365 77.7003C53.8817 78.0836 54.046 78.2478 54.3745 78.2478C54.8126 78.2478 55.1411 77.974 55.2506 77.7003C55.3054 77.6455 55.3054 77.5907 55.3054 77.536L55.4697 76.9884Z" fill="white"></path>
<path d="M57.1666 76.2766C57.2214 75.948 57.2761 75.6742 57.3309 75.4004H57.8237L57.7689 75.948C57.988 75.6195 58.426 75.3457 58.9736 75.3457C59.4116 75.3457 60.0687 75.6195 59.7949 76.7146L59.3569 78.6311H58.7546L59.1379 76.7694C59.2474 76.2766 59.1379 75.8385 58.5903 75.8385C58.207 75.8385 57.8237 76.1123 57.6594 76.4408C57.6047 76.4956 57.6047 76.6051 57.5499 76.7146L57.1118 78.6311H56.5095L57.1666 76.2766Z" fill="white"></path>
<path d="M63.792 75.4003C63.7373 75.6193 63.6825 75.8931 63.573 76.2764L63.1897 78.1381C63.0254 78.85 62.8064 79.3428 62.4231 79.6166C62.0398 79.8904 61.6017 79.9999 61.1637 79.9999C60.7804 79.9999 60.3971 79.8904 60.1233 79.7261L60.3423 79.288C60.5066 79.3975 60.8351 79.5618 61.2184 79.5618C61.8208 79.5618 62.3136 79.2333 62.4778 78.4119L62.5326 78.0286C62.3136 78.3024 61.8755 78.5762 61.3827 78.5762C60.5613 78.5762 60.1781 77.9191 60.3423 76.9882C60.5614 75.8931 61.4375 75.2908 62.1493 75.2908C62.6969 75.2908 62.9707 75.5646 63.0254 75.8383L63.1349 75.3455H63.792V75.4003ZM62.9159 76.7145C62.9159 76.6049 62.9707 76.5502 62.9159 76.4407C62.8612 76.1121 62.6421 75.8383 62.2041 75.8383C61.6565 75.8383 61.1637 76.3311 60.9994 77.043C60.8899 77.7001 61.0542 78.1929 61.7113 78.1929C62.0946 78.1929 62.4231 77.9739 62.6421 77.5906C62.6969 77.481 62.7516 77.3715 62.7516 77.262L62.9159 76.7145Z" fill="white"></path>
<path d="M64.7236 77.1527C64.5594 77.9193 64.9974 78.2478 65.5998 78.2478C66.0378 78.2478 66.3116 78.1931 66.5306 78.0836V78.5216C66.3116 78.6311 65.9283 78.7406 65.4355 78.7406C64.4499 78.7406 64.0118 78.0835 64.1761 77.0979C64.3403 76.1123 65.1069 75.3457 66.0378 75.3457C67.0782 75.3457 67.1877 76.2766 67.0234 76.8789C67.0234 76.9884 66.9687 77.0979 66.9687 77.1527H64.7236ZM66.5306 76.7146C66.6401 76.3313 66.5854 75.7838 65.9283 75.7838C65.326 75.7838 64.9427 76.3313 64.8332 76.7146H66.5306Z" fill="white"></path>
<path d="M72.0044 78.5214C71.7854 78.631 71.3473 78.7405 70.7998 78.7405C69.5404 78.7405 68.7738 77.9191 69.0475 76.4954C69.3761 75.0717 70.526 74.1409 71.8949 74.1409C72.4425 74.1409 72.771 74.2504 72.9353 74.3599L72.7163 74.8527C72.4972 74.7432 72.2235 74.6884 71.8402 74.6884C70.7998 74.6884 69.9237 75.3455 69.7046 76.5502C69.4856 77.6453 69.9237 78.3572 71.0188 78.3572C71.3473 78.3572 71.7306 78.3024 72.0044 78.1929V78.5214Z" fill="white"></path>
<path d="M75.9481 76.9884C75.6743 78.1931 74.7434 78.6859 73.9768 78.6859C73.1007 78.6859 72.5531 78.0288 72.7722 77.0432C72.9912 75.948 73.8673 75.3457 74.7434 75.3457C75.6743 75.3457 76.1124 76.0028 75.9481 76.9884ZM73.3745 77.0432C73.2102 77.755 73.5388 78.3026 74.0863 78.3026C74.6339 78.3026 75.1815 77.755 75.3458 77.0432C75.4553 76.4956 75.3458 75.7838 74.6339 75.7838C73.9221 75.7838 73.484 76.4408 73.3745 77.0432Z" fill="white"></path>
<path d="M76.8244 76.2764C76.8792 75.9479 76.9339 75.6741 76.9887 75.4003H77.4815L77.372 75.8931C77.591 75.5646 77.9743 75.2908 78.5219 75.2908C78.96 75.2908 79.2337 75.5645 79.2885 75.9478C79.4528 75.7836 79.5623 75.6193 79.7266 75.5098C79.9456 75.3455 80.1646 75.2908 80.4932 75.2908C80.9312 75.2908 81.4788 75.5646 81.2598 76.6597L80.8765 78.5762H80.3289L80.7122 76.7692C80.8217 76.1669 80.7122 75.7836 80.2194 75.7836C79.8908 75.7836 79.5623 76.0026 79.398 76.3312C79.3433 76.3859 79.2885 76.4954 79.2885 76.6049L78.8504 78.5762H78.3029L78.7409 76.6597C78.8504 76.1669 78.6862 75.7836 78.2481 75.7836C77.8648 75.7836 77.5363 76.0574 77.372 76.3859C77.3172 76.4954 77.2625 76.5502 77.2625 76.6597L76.8244 78.5762H76.2769L76.8244 76.2764Z" fill="white"></path>
<path d="M82.354 76.2764C82.4087 75.9479 82.4635 75.6741 82.5182 75.4003H83.0111L82.9015 75.8931C83.1206 75.5646 83.5039 75.2908 84.0514 75.2908C84.4895 75.2908 84.7633 75.5645 84.818 75.9478C84.9823 75.7836 85.0918 75.6193 85.2561 75.5098C85.4751 75.3455 85.6942 75.2908 86.0227 75.2908C86.4608 75.2908 87.0083 75.5646 86.7893 76.6597L86.406 78.5762H85.8584L86.2417 76.7692C86.3512 76.1669 86.2417 75.7836 85.7489 75.7836C85.4204 75.7836 85.0918 76.0026 84.9276 76.3312C84.8728 76.3859 84.818 76.4954 84.818 76.6049L84.38 78.5762H83.8324L84.2705 76.6597C84.38 76.1669 84.2157 75.7836 83.7777 75.7836C83.3944 75.7836 83.0658 76.0574 82.9015 76.3859C82.8468 76.4954 82.792 76.5502 82.792 76.6597L82.354 78.5762H81.8064L82.354 76.2764Z" fill="white"></path>
<path d="M87.3916 78.631L88.1034 75.4003H88.7058L87.9939 78.631H87.3916ZM88.9248 74.5242C88.87 74.7432 88.7058 74.9075 88.4867 74.9075C88.2677 74.9075 88.1582 74.7432 88.213 74.5242C88.2677 74.3051 88.432 74.1409 88.651 74.1409C88.87 74.1409 88.9796 74.3051 88.9248 74.5242Z" fill="white"></path>
<path d="M89.0343 78.0286C89.1986 78.1381 89.4723 78.2477 89.7461 78.2477C90.1842 78.2477 90.4032 78.0286 90.458 77.7548C90.5127 77.4811 90.4032 77.3168 89.9652 77.1525C89.4176 76.9335 89.2533 76.6049 89.3081 76.2216C89.4176 75.7288 89.9104 75.2908 90.6222 75.2908C90.9508 75.2908 91.2246 75.4003 91.3888 75.5098L91.1698 75.9478C91.0603 75.8931 90.8413 75.7836 90.5675 75.7836C90.2389 75.7836 89.9652 76.0026 89.9104 76.2216C89.8556 76.4954 90.0199 76.6049 90.4032 76.7692C90.896 76.9882 91.1151 77.262 91.0603 77.7548C90.9508 78.3024 90.4032 78.7405 89.6366 78.7405C89.3081 78.7405 88.9795 78.631 88.7605 78.5214L89.0343 78.0286Z" fill="white"></path>
<path d="M91.6644 78.0286C91.8287 78.1381 92.1025 78.2477 92.3763 78.2477C92.8143 78.2477 93.0333 78.0286 93.0881 77.7548C93.1429 77.4811 93.0333 77.3168 92.5953 77.1525C92.0477 76.9335 91.8834 76.6049 91.9382 76.2216C92.0477 75.7288 92.5405 75.2908 93.2524 75.2908C93.5809 75.2908 93.8547 75.4003 94.019 75.5098L93.7999 75.9478C93.6904 75.8931 93.4714 75.7836 93.1976 75.7836C92.8691 75.7836 92.5953 76.0026 92.5405 76.2216C92.4858 76.4954 92.65 76.6049 93.0333 76.7692C93.5262 76.9882 93.7452 77.262 93.6904 77.7548C93.5809 78.3024 93.0333 78.7405 92.2667 78.7405C91.9382 78.7405 91.6097 78.631 91.3906 78.5214L91.6644 78.0286Z" fill="white"></path>
<path d="M94.2371 78.631L94.9489 75.4003H95.5512L94.8394 78.631H94.2371ZM95.7703 74.5242C95.7155 74.7432 95.5512 74.9075 95.3322 74.9075C95.1132 74.9075 95.0037 74.7432 95.0584 74.5242C95.1132 74.3051 95.2774 74.1409 95.4965 74.1409C95.7155 74.1409 95.825 74.3051 95.7703 74.5242Z" fill="white"></path>
<path d="M99.055 76.9884C98.7812 78.1931 97.8504 78.6859 97.0838 78.6859C96.2076 78.6859 95.6601 78.0288 95.8791 77.0432C96.0981 75.948 96.9743 75.3457 97.8504 75.3457C98.7812 75.3457 99.2741 76.0028 99.055 76.9884ZM96.4814 77.0432C96.3172 77.755 96.6457 78.3026 97.1933 78.3026C97.7409 78.3026 98.2884 77.755 98.4527 77.0432C98.5622 76.4956 98.4527 75.7838 97.7409 75.7838C97.0838 75.7838 96.6457 76.4408 96.4814 77.0432Z" fill="white"></path>
<path d="M99.9315 76.2766C99.9863 75.948 100.041 75.6742 100.096 75.4004H100.589L100.534 75.948C100.753 75.6195 101.191 75.3457 101.738 75.3457C102.177 75.3457 102.834 75.6195 102.56 76.7146L102.122 78.6311H101.519L101.903 76.7694C102.012 76.2766 101.903 75.8385 101.355 75.8385C100.972 75.8385 100.589 76.1123 100.424 76.4408C100.37 76.4956 100.37 76.6051 100.315 76.7146L99.8767 78.6311H99.2744L99.9315 76.2766Z" fill="white"></path>
<path d="M107.817 76.9884C107.543 78.1931 106.612 78.6859 105.846 78.6859C104.97 78.6859 104.422 78.0288 104.641 77.0432C104.86 75.948 105.736 75.3457 106.612 75.3457C107.543 75.3457 108.036 76.0028 107.817 76.9884ZM105.243 77.0432C105.079 77.755 105.408 78.3026 105.955 78.3026C106.503 78.3026 107.05 77.755 107.215 77.0432C107.324 76.4956 107.215 75.7838 106.503 75.7838C105.791 75.7838 105.408 76.4408 105.243 77.0432Z" fill="white"></path>
<path d="M108.254 78.6311L108.857 75.8385H108.419L108.528 75.4005H108.966L109.021 75.2362C109.131 74.7981 109.295 74.3601 109.623 74.0863C109.897 73.8673 110.226 73.8125 110.499 73.8125C110.718 73.8125 110.883 73.8673 110.992 73.922L110.828 74.3601C110.773 74.3053 110.664 74.3053 110.445 74.3053C109.952 74.3053 109.733 74.7434 109.623 75.2362L109.569 75.4005H110.335L110.226 75.8385H109.459L108.857 78.6311H108.254Z" fill="white"></path>
<path d="M112.526 74.2504C112.799 74.1956 113.183 74.1409 113.621 74.1409C114.223 74.1409 114.552 74.2504 114.771 74.4694C114.99 74.6337 115.044 74.9075 114.99 75.236C114.88 75.6741 114.552 76.0574 114.004 76.2216C114.387 76.3311 114.825 76.6597 114.661 77.3715C114.552 77.7548 114.387 78.0286 114.114 78.2477C113.73 78.5214 113.183 78.6857 112.471 78.6857C112.088 78.6857 111.759 78.6857 111.595 78.631L112.526 74.2504ZM112.252 78.1929C112.361 78.1929 112.526 78.1929 112.745 78.1929C113.347 78.1929 113.949 77.9739 114.059 77.3168C114.168 76.7144 113.73 76.4407 113.073 76.4407H112.58L112.252 78.1929ZM112.69 76.0574H113.237C113.84 76.0574 114.278 75.7288 114.387 75.2908C114.497 74.7432 114.168 74.5789 113.566 74.5789C113.292 74.5789 113.128 74.5789 113.018 74.6337L112.69 76.0574Z" fill="white"></path>
<path d="M115.647 76.4405C115.701 76.0572 115.811 75.7287 115.811 75.4549H116.304L116.194 76.112C116.413 75.6739 116.851 75.4001 117.234 75.4001C117.289 75.4001 117.344 75.4001 117.399 75.4001L117.289 75.9477C117.234 75.9477 117.18 75.9477 117.07 75.9477C116.632 75.9477 116.304 76.2763 116.139 76.7143C116.085 76.7691 116.085 76.8786 116.03 76.9881L115.647 78.6856H115.044L115.647 76.4405Z" fill="white"></path>
<path d="M119.096 78.6311L119.151 78.2478C118.932 78.5216 118.549 78.7406 118.056 78.7406C117.399 78.7406 117.18 78.3026 117.289 77.8098C117.453 77.0432 118.22 76.6051 119.479 76.6051V76.5503C119.534 76.2766 119.589 75.7838 118.932 75.7838C118.658 75.7838 118.275 75.8933 118.056 76.0028L118.001 75.6195C118.329 75.4552 118.713 75.3457 119.096 75.3457C120.082 75.3457 120.191 76.0028 120.027 76.6599L119.753 77.8645C119.698 78.1383 119.644 78.4121 119.644 78.6311H119.096ZM119.37 76.9884C118.713 76.9884 118.001 77.0979 117.837 77.7003C117.782 78.0836 117.946 78.2478 118.275 78.2478C118.713 78.2478 119.041 77.974 119.151 77.7003C119.206 77.6455 119.206 77.5907 119.206 77.536L119.37 76.9884Z" fill="white"></path>
<path d="M120.247 78.3023L122.109 76.3858C122.273 76.2215 122.437 76.0572 122.656 75.893H120.904L121.013 75.4001H123.477L123.368 75.7835L121.506 77.6452C121.342 77.8095 121.178 77.9737 120.959 78.138H122.82L122.711 78.5761H120.083L120.247 78.3023Z" fill="white"></path>
<path d="M123.368 78.631L124.08 75.4003H124.682L123.97 78.631H123.368ZM124.901 74.5242C124.847 74.7432 124.682 74.9075 124.463 74.9075C124.244 74.9075 124.135 74.7432 124.19 74.5242C124.244 74.3051 124.409 74.1409 124.628 74.1409C124.847 74.1409 124.956 74.3051 124.901 74.5242Z" fill="white"></path>
<path d="M125.942 73.9219H126.544L125.503 78.631H124.901L125.942 73.9219Z" fill="white"></path>
<path fill-rule="evenodd" clip-rule="evenodd" d="M22.2323 55.633L44.4089 33.1826V57.9876H0.0556641V33.1826L22.2323 55.633Z" fill="white"></path>
<path fill-rule="evenodd" clip-rule="evenodd" d="M22.2323 0L44.4089 22.4504L22.2323 44.9008L0.0556641 22.4504L22.2323 0ZM22.2323 10.7872L10.6785 22.5052L22.2323 34.2232L33.786 22.5052L22.2323 10.7872Z" fill="white"></path>
<path fill-rule="evenodd" clip-rule="evenodd" d="M22.23 0V10.7872L33.7837 22.4504H44.4066L22.23 0Z" fill="white"></path>
<path fill-rule="evenodd" clip-rule="evenodd" d="M5.85992 64.7776C5.64089 64.4491 5.42186 64.1753 5.09332 64.0111C4.81953 63.8468 4.43623 63.792 3.99818 63.792C3.50536 63.792 3.12206 63.9015 2.73876 64.1206C2.35546 64.3396 2.02692 64.6134 1.80789 64.9967C1.58886 65.38 1.36983 65.7633 1.26032 66.2561C1.15081 66.6942 1.04129 67.187 1.04129 67.625C1.04129 68.4464 1.26032 69.0487 1.64362 69.5415C2.02692 70.0343 2.57449 70.2534 3.23158 70.2534C3.66963 70.2534 4.05293 70.1438 4.43623 69.9796C4.81953 69.8153 5.20283 69.5415 5.53138 69.1582L5.58613 69.2677C5.53137 69.432 5.47662 69.5415 5.42186 69.7058C5.3671 69.8701 5.31235 70.0343 5.31235 70.2534C4.92905 70.4176 4.54575 70.5272 4.2172 70.6367C3.88866 70.6914 3.50536 70.7462 3.17682 70.7462C2.19119 70.7462 1.42459 70.4724 0.877021 69.8701C0.32945 69.3225 0.0556641 68.5011 0.0556641 67.5155C0.0556641 66.9679 0.165178 66.4751 0.32945 65.9823C0.493721 65.4895 0.767506 65.0514 1.09605 64.6134C1.47935 64.1753 1.91741 63.8468 2.41022 63.6278C2.90303 63.4087 3.50536 63.2992 4.16245 63.2992C4.54575 63.2992 4.92905 63.354 5.31235 63.4087C5.69565 63.5182 6.02419 63.6278 6.29798 63.792C6.24322 63.9563 6.1337 64.0658 6.07895 64.2301C6.02419 64.3943 5.96943 64.5586 5.96943 64.7229H5.85992V64.7776ZM8.87156 65.8728C8.32399 65.8728 7.88593 66.1466 7.55739 66.7489C7.17409 67.2965 7.00982 68.0083 7.00982 68.8297C7.00982 69.3225 7.11933 69.7058 7.33836 69.9248C7.55739 70.1986 7.83117 70.3081 8.21447 70.3081C8.76204 70.3081 9.2001 70.0343 9.5834 69.432C9.9667 68.8297 10.1857 68.1726 10.1857 67.3512C10.1857 66.9132 10.0762 66.5299 9.85719 66.2561C9.5834 65.9823 9.30962 65.8728 8.87156 65.8728ZM6.07895 68.5011C6.07895 69.1582 6.29797 69.7058 6.68127 70.0891C7.06457 70.4724 7.61215 70.6914 8.26923 70.6914C9.03583 70.6914 9.69292 70.4176 10.2405 69.8153C10.7881 69.213 11.0618 68.5011 11.0618 67.6798C11.0618 66.9679 10.8428 66.4751 10.4595 66.0918C10.0762 65.7085 9.47389 65.4895 8.76204 65.4895C7.99544 65.4895 7.33836 65.7633 6.84555 66.3656C6.35273 66.9132 6.07895 67.6798 6.07895 68.5011ZM14.7306 70.5819C14.9496 69.8153 15.0591 69.1035 15.1686 68.3916C15.2781 67.7345 15.3329 67.2417 15.3329 66.9679C15.3329 66.6941 15.2781 66.4751 15.1139 66.3108C15.0044 66.1466 14.7853 66.0918 14.5115 66.0918C13.9092 66.0918 13.4164 66.4204 13.0879 67.0775C12.7593 67.7345 12.5403 68.8844 12.4308 70.5819C12.3213 70.5819 12.2117 70.5819 12.157 70.5271C12.1022 70.5271 11.9927 70.5271 11.938 70.5271C11.8832 70.5271 11.8284 70.5271 11.7737 70.5271C11.7189 70.5271 11.6094 70.5271 11.4999 70.5819C11.7189 69.5963 11.938 68.7202 12.0475 67.844C12.2117 66.9679 12.2665 66.2561 12.3213 65.599C12.4308 65.599 12.4855 65.599 12.595 65.6538C12.6498 65.6538 12.7593 65.6538 12.7593 65.6538C12.8141 65.6538 12.9236 65.6538 12.9783 65.6538C13.0331 65.6538 13.1426 65.6538 13.2521 65.599C13.1974 65.7633 13.1426 65.9276 13.0879 66.0918C13.0331 66.2561 13.0331 66.4204 12.9783 66.5846C13.2521 66.2013 13.5259 65.9275 13.7997 65.7633C14.0735 65.599 14.402 65.4895 14.7853 65.4895C15.1686 65.4895 15.4972 65.599 15.7162 65.7633C15.9352 65.9275 16.0447 66.2013 16.0447 66.5846C16.3185 66.2013 16.6471 65.9275 16.9756 65.7633C17.3042 65.599 17.6327 65.4895 18.016 65.4895C18.4541 65.4895 18.7826 65.599 19.0016 65.818C19.2207 66.0371 19.3849 66.3656 19.3849 66.7489C19.3849 66.9679 19.3302 67.5155 19.1659 68.3916C19.0016 69.2677 18.8921 69.9796 18.8374 70.6367C18.7826 70.6367 18.6731 70.6367 18.6183 70.5819C18.5636 70.5819 18.4541 70.5819 18.3993 70.5819C18.3445 70.5819 18.235 70.5819 18.1803 70.5819C18.1255 70.5819 18.016 70.5819 17.9065 70.6367C18.0708 69.8701 18.235 69.1035 18.3445 68.4464C18.4541 67.7893 18.5088 67.2965 18.5088 67.0227C18.5088 66.7489 18.4541 66.5299 18.2898 66.3656C18.1255 66.2013 17.9612 66.1466 17.6875 66.1466C17.0851 66.1466 16.5923 66.4751 16.3185 67.1322C15.99 67.7893 15.771 68.9392 15.6614 70.6367C15.6067 70.6367 15.4972 70.6367 15.3877 70.5819C15.3329 70.5819 15.2234 70.5819 15.1686 70.5819C15.1139 70.5819 15.0591 70.5819 15.0044 70.5819C14.9496 70.5271 14.8948 70.5819 14.7306 70.5819ZM21.3562 63.7373C21.3562 63.573 21.4109 63.4635 21.4657 63.354C21.5752 63.2445 21.6847 63.2445 21.7942 63.2445C21.9585 63.2445 22.068 63.2992 22.1228 63.354C22.1775 63.4635 22.2323 63.573 22.2323 63.7373C22.2323 63.9015 22.1775 64.011 22.068 64.1206C21.9585 64.2301 21.849 64.2848 21.7395 64.2848C21.5752 64.2848 21.4657 64.2301 21.4109 64.1206C21.4109 64.011 21.3562 63.9015 21.3562 63.7373ZM20.2063 70.5819C20.4801 69.4868 20.6991 68.5559 20.8086 67.6798C20.9729 66.8037 21.0276 66.1466 21.0276 65.599C21.1372 65.599 21.1919 65.599 21.3014 65.6538C21.3562 65.6538 21.4657 65.6538 21.5205 65.6538C21.5752 65.6538 21.6847 65.6538 21.7942 65.6538C21.9038 65.6538 21.9585 65.6538 22.068 65.599C21.7942 66.5846 21.63 67.5155 21.4657 68.3369C21.3014 69.213 21.2467 69.9248 21.1919 70.5819C21.0276 70.5819 20.9181 70.5271 20.8634 70.5271C20.8086 70.5271 20.6991 70.5271 20.6443 70.5271C20.5896 70.5271 20.5348 70.5271 20.4801 70.5271C20.4801 70.5271 20.3706 70.5819 20.2063 70.5819ZM22.7251 69.213H22.8894C22.9441 69.5415 23.0537 69.8153 23.2727 69.9796C23.4917 70.1986 23.7107 70.2534 24.0393 70.2534C24.3131 70.2534 24.5869 70.1438 24.7511 69.9796C24.9154 69.8153 25.0249 69.5415 25.0249 69.2677C25.0249 68.9392 24.7511 68.6106 24.1488 68.3369C24.094 68.3369 24.094 68.2821 24.0393 68.2821C23.656 68.1178 23.3822 67.9536 23.2179 67.7345C23.0537 67.5155 22.9989 67.2965 22.9989 66.9679C22.9989 66.5299 23.1632 66.1466 23.437 65.818C23.7655 65.5443 24.1488 65.38 24.6416 65.38C24.9154 65.38 25.1344 65.4347 25.3535 65.4895C25.5725 65.5442 25.7915 65.6538 25.9558 65.7633C25.901 65.8728 25.8463 66.0371 25.7915 66.1466C25.7367 66.2561 25.7368 66.4204 25.682 66.5846H25.5725C25.463 66.3108 25.3535 66.0918 25.1892 65.9823C25.0249 65.8728 24.8059 65.7633 24.5869 65.7633C24.3131 65.7633 24.1488 65.818 23.9845 65.9823C23.8203 66.1466 23.7655 66.3656 23.7655 66.5846C23.7655 66.9132 24.0393 67.2417 24.6416 67.4607C24.6964 67.4607 24.6964 67.5155 24.7511 67.5155C25.1892 67.6798 25.463 67.8988 25.6272 68.0631C25.7915 68.2821 25.8463 68.5011 25.8463 68.8297C25.8463 69.3225 25.682 69.7606 25.3535 70.0891C25.0249 70.4176 24.5321 70.5819 23.9845 70.5819C23.7107 70.5819 23.437 70.5272 23.1632 70.4176C22.8894 70.3081 22.6704 70.1986 22.5061 70.0343C22.5608 69.8701 22.6156 69.7058 22.6156 69.5415C22.6156 69.4868 22.6704 69.3772 22.7251 69.213ZM26.5034 69.213H26.6676C26.7224 69.5415 26.8319 69.8153 27.0509 69.9796C27.27 70.1986 27.489 70.2534 27.8175 70.2534C28.0913 70.2534 28.3651 70.1438 28.5294 69.9796C28.6936 69.8153 28.8031 69.5415 28.8031 69.2677C28.8031 68.9392 28.5294 68.6106 27.8723 68.3369C27.8175 68.3369 27.8175 68.2821 27.7628 68.2821C27.3795 68.1178 27.1057 67.9536 26.9414 67.7345C26.7771 67.5155 26.7224 67.2965 26.7224 66.9679C26.7224 66.5299 26.8867 66.1466 27.1604 65.818C27.489 65.5443 27.8723 65.38 28.3651 65.38C28.6389 65.38 28.8579 65.4347 29.0769 65.4895C29.296 65.5442 29.515 65.6538 29.6793 65.7633C29.6245 65.8728 29.5697 66.0371 29.515 66.1466C29.4602 66.2561 29.4602 66.4204 29.4055 66.5846H29.296C29.1864 66.3108 29.0769 66.0918 28.9127 65.9823C28.7484 65.8728 28.5294 65.7633 28.3103 65.7633C28.0366 65.7633 27.8723 65.818 27.708 65.9823C27.5437 66.1466 27.489 66.3656 27.489 66.5846C27.489 66.9132 27.7628 67.2417 28.3651 67.4607C28.4199 67.4607 28.4198 67.5155 28.4746 67.5155C28.9127 67.6798 29.1864 67.8988 29.3507 68.0631C29.515 68.2821 29.5697 68.5011 29.5697 68.8297C29.5697 69.3225 29.4055 69.7606 29.0769 70.0891C28.7484 70.4176 28.2556 70.5819 27.708 70.5819C27.4342 70.5819 27.1604 70.5272 26.8867 70.4176C26.6129 70.3081 26.3938 70.1986 26.2296 70.0343C26.2843 69.8701 26.3391 69.7058 26.3391 69.5415C26.3938 69.4868 26.4486 69.3772 26.5034 69.213ZM32.8004 69.8701C32.5814 70.1439 32.3624 70.3629 32.0886 70.4724C31.8695 70.5819 31.5958 70.6367 31.322 70.6367C30.9387 70.6367 30.6649 70.5271 30.4459 70.3081C30.2268 70.0891 30.1173 69.8153 30.1173 69.432C30.1173 68.9392 30.2816 68.6106 30.5554 68.3369C30.8292 68.0631 31.3767 67.844 32.1433 67.7345L32.9647 67.5703C33.0742 67.5155 33.1837 67.4608 33.2385 67.2965C33.2932 67.1322 33.348 66.9679 33.348 66.6941C33.348 66.4204 33.2932 66.2013 33.129 66.0918C32.9647 65.9276 32.8004 65.8728 32.5266 65.8728C32.2528 65.8728 31.9791 65.9276 31.76 66.0918C31.541 66.2561 31.3767 66.4204 31.2125 66.6941L31.0482 66.6394C31.0482 66.5299 31.103 66.4204 31.103 66.3656C31.103 66.2561 31.103 66.2013 31.103 66.0918V66.0371C31.103 66.0371 31.103 65.9823 31.103 65.9276C31.322 65.7633 31.5958 65.6538 31.8148 65.599C32.0886 65.5442 32.3076 65.4895 32.5814 65.4895C33.0742 65.4895 33.4575 65.599 33.6765 65.818C33.9503 66.0371 34.0598 66.3656 34.0598 66.7489C34.0598 66.8584 34.0598 67.0227 34.0051 67.187C34.0051 67.3512 33.9503 67.5703 33.8956 67.7345L33.567 69.4868C33.567 69.5415 33.567 69.651 33.5123 69.7058C33.5123 69.7605 33.5123 69.8153 33.5123 69.9248C33.5123 70.0343 33.567 70.0891 33.567 70.1439C33.6218 70.1986 33.6765 70.1986 33.786 70.1986C33.8408 70.1986 33.8408 70.1986 33.8956 70.1986C33.9503 70.1986 34.0051 70.1439 34.0598 70.1439L34.1693 70.4176C34.0051 70.5272 33.8408 70.5819 33.7313 70.6367C33.567 70.6914 33.4575 70.6914 33.2932 70.6914C33.0742 70.6914 32.9099 70.6367 32.8004 70.4724C32.8552 70.3081 32.8004 70.1439 32.8004 69.8701ZM33.129 67.9536L32.3076 68.1726C31.8148 68.2821 31.4862 68.4464 31.2672 68.6654C31.0482 68.8844 30.9387 69.1035 30.9387 69.432C30.9387 69.651 30.9934 69.8701 31.1577 69.9796C31.2672 70.1438 31.4315 70.1986 31.6505 70.1986C31.9243 70.1986 32.1981 70.0891 32.4171 69.8701C32.6909 69.651 32.8004 69.432 32.8552 69.1582L33.129 67.9536ZM34.3884 63.6278C34.3336 63.9563 34.2241 64.2301 34.0598 64.3943C33.8956 64.5586 33.6765 64.6681 33.4575 64.6681C33.4027 64.6681 33.348 64.6681 33.2932 64.6681C33.2385 64.6681 33.1837 64.6134 33.0742 64.6134L32.4719 64.4491C32.4171 64.4491 32.3624 64.4491 32.3076 64.3943C32.2528 64.3943 32.1981 64.3943 32.1981 64.3943C32.0886 64.3943 32.0338 64.4491 31.9243 64.5039C31.8696 64.5586 31.8148 64.6681 31.76 64.8324H31.4862C31.541 64.5039 31.6505 64.2301 31.76 64.0658C31.9243 63.9015 32.0886 63.792 32.3076 63.792C32.3624 63.792 32.4171 63.792 32.4719 63.792C32.5266 63.792 32.5814 63.792 32.6909 63.8468L33.348 64.0111C33.4027 64.0111 33.4575 64.0111 33.5123 64.0658C33.567 64.0658 33.6218 64.0658 33.6218 64.0658C33.786 64.0658 33.8408 64.011 33.9503 63.9563C34.0051 63.9015 34.0598 63.792 34.1146 63.6278H34.3884ZM37.7286 65.8728C37.181 65.8728 36.7429 66.1466 36.3596 66.7489C35.9763 67.2965 35.8121 68.0083 35.8121 68.8297C35.8121 69.3225 35.9216 69.7058 36.1406 69.9248C36.3596 70.1986 36.6334 70.3081 37.0167 70.3081C37.5643 70.3081 38.0023 70.0343 38.3856 69.432C38.7689 68.8297 38.988 68.1726 38.988 67.3512C38.988 66.9132 38.8785 66.5299 38.6594 66.2561C38.4404 65.9823 38.1119 65.8728 37.7286 65.8728ZM34.9359 68.5011C34.9359 67.6798 35.2097 66.9679 35.7026 66.3656C36.1954 65.7633 36.8525 65.4895 37.619 65.4895C38.3309 65.4895 38.8785 65.6538 39.3165 66.0918C39.6998 66.4751 39.9188 67.0227 39.9188 67.6798C39.9188 68.5011 39.6451 69.2677 39.0975 69.8153C38.5499 70.4176 37.8928 70.6914 37.1262 70.6914C36.4691 70.6914 35.9216 70.4724 35.5383 70.0891C35.1002 69.7058 34.9359 69.1582 34.9359 68.5011ZM46.3254 69.8701C46.0516 70.1439 45.7779 70.3629 45.5041 70.5271C45.2303 70.6367 44.9017 70.7462 44.5732 70.7462C44.0804 70.7462 43.6423 70.5819 43.3685 70.1439C43.04 69.7606 42.8757 69.2677 42.8757 68.6106C42.8757 67.7345 43.0948 66.9679 43.5876 66.3656C44.0804 65.7633 44.6827 65.4895 45.4493 65.4895C45.7779 65.4895 46.1064 65.599 46.3254 65.7633C46.5992 65.9823 46.7635 66.2013 46.873 66.5846L47.092 65.4347C47.2015 64.9419 47.2563 64.4491 47.3658 64.0111C47.4206 63.573 47.4753 63.1897 47.5848 62.8064C47.6944 62.8064 47.8039 62.8611 47.8586 62.8611C47.9134 62.8611 47.9681 62.8611 48.0229 62.8611C48.0777 62.8611 48.1872 62.8611 48.2419 62.8611C48.3514 62.8611 48.4062 62.8612 48.5157 62.8064C48.1872 64.0658 47.8586 65.38 47.6396 66.6941C47.3658 68.0083 47.1468 69.3225 46.9825 70.6367C46.873 70.6367 46.8182 70.6367 46.7635 70.6367C46.7087 70.6367 46.5992 70.6367 46.5992 70.6367C46.5445 70.6367 46.4897 70.6367 46.3802 70.6367C46.3254 70.6367 46.2159 70.6367 46.1064 70.6367L46.3254 69.8701ZM45.5588 66.0371C45.066 66.0371 44.628 66.3109 44.2994 66.8037C43.9709 67.2965 43.8066 67.9536 43.8066 68.7202C43.8066 69.1582 43.9161 69.5415 44.0804 69.7605C44.2447 69.9796 44.5184 70.1439 44.847 70.1439C45.3946 70.1439 45.7779 69.8701 46.1064 69.3772C46.4349 68.8844 46.5992 68.2274 46.5992 67.406C46.5992 66.9679 46.4897 66.6394 46.3254 66.3656C46.2159 66.1466 45.9421 66.0371 45.5588 66.0371ZM49.4466 67.5703C49.5561 67.5703 49.6656 67.5703 49.8299 67.5703C50.2132 67.5703 50.487 67.5703 50.5965 67.5703C50.7608 67.5703 51.0345 67.5703 51.4178 67.5703C51.5821 67.5703 51.6916 67.5703 51.8011 67.5703C51.8011 67.4607 51.8011 67.3512 51.8011 67.2965C51.8011 67.2417 51.8011 67.1322 51.8011 67.0775C51.8011 66.6942 51.6916 66.3656 51.5821 66.1466C51.4178 65.9275 51.1988 65.818 50.925 65.818C50.5965 65.818 50.2679 65.9823 49.9942 66.2561C49.7751 66.6394 49.5561 67.0775 49.4466 67.5703ZM49.3371 68.0083C49.6109 68.0083 49.8846 68.0083 50.2679 68.0083C50.5965 68.0083 50.8155 68.0083 50.8703 68.0083C51.1988 68.0083 51.6916 68.0083 52.4035 68.0083H52.6225C52.6225 67.8988 52.6225 67.7345 52.6225 67.6798C52.6225 67.5703 52.6225 67.5155 52.6225 67.4607C52.6225 66.8037 52.4582 66.3109 52.1297 65.9823C51.8011 65.599 51.4178 65.4347 50.8703 65.4347C50.1037 65.4347 49.5013 65.7085 49.0085 66.3108C48.5157 66.9132 48.2967 67.625 48.2967 68.5011C48.2967 69.1582 48.461 69.7058 48.8443 70.1439C49.2276 70.5272 49.7204 70.7462 50.3775 70.7462C50.6512 70.7462 50.925 70.6914 51.1441 70.6367C51.4178 70.5272 51.6916 70.4176 51.9654 70.2534C52.0202 70.1438 52.0202 70.0343 52.0749 69.9248C52.1297 69.8153 52.1844 69.7058 52.1844 69.5963L52.0749 69.4868C51.8011 69.7605 51.5274 69.9796 51.3083 70.0891C51.0345 70.1986 50.8155 70.3081 50.5417 70.3081C50.1037 70.3081 49.7751 70.1986 49.5561 69.9248C49.3371 69.651 49.2276 69.2677 49.2276 68.7749C49.2276 68.6654 49.2276 68.5559 49.2276 68.4464C49.3371 68.2821 49.3371 68.1726 49.3371 68.0083ZM57.1673 70.5819C57.1126 69.8701 57.0031 68.9392 56.784 67.7345C56.565 66.5299 56.2912 65.1062 55.9079 63.4635C56.0174 63.4635 56.127 63.4635 56.2365 63.5182C56.346 63.5182 56.4007 63.5182 56.4555 63.5182C56.5103 63.5182 56.565 63.5182 56.6745 63.5182C56.7293 63.5182 56.8388 63.5182 57.0031 63.4635C57.0578 63.9563 57.1126 64.4491 57.1673 64.9967C57.2221 65.4895 57.3316 66.0918 57.4411 66.7489L57.8792 69.3772L59.3029 66.5299C59.6862 65.818 59.9599 65.2157 60.1242 64.7776C60.3433 64.3396 60.5075 63.9015 60.6718 63.4635C60.7813 63.4635 60.8908 63.5182 60.9456 63.5182C61.0003 63.5182 61.0551 63.5182 61.1099 63.5182C61.1646 63.5182 61.2194 63.5182 61.2741 63.5182C61.3289 63.5182 61.4384 63.5182 61.5479 63.4635C60.5623 65.2157 59.7409 66.6942 59.1386 67.8988C58.4815 69.1035 58.0982 69.9796 57.8244 70.5819C57.7149 70.5819 57.6602 70.5271 57.6054 70.5271C57.5506 70.5271 57.4959 70.5271 57.4959 70.5271C57.4411 70.5271 57.4411 70.5271 57.3864 70.5271C57.3316 70.5271 57.2769 70.5819 57.1673 70.5819ZM62.9168 69.8701C62.9168 70.1439 62.9716 70.3081 63.0811 70.4724C63.1906 70.5819 63.3549 70.6914 63.5739 70.6914C63.6834 70.6914 63.8477 70.6914 64.012 70.6367C64.1215 70.5819 64.2858 70.5272 64.45 70.4176L64.3405 70.1439C64.231 70.1439 64.1762 70.1986 64.1215 70.1986C64.0667 70.1986 64.012 70.1986 64.012 70.1986C63.9025 70.1986 63.8477 70.1439 63.793 70.1439C63.7382 70.0891 63.7382 70.0343 63.7382 69.9248C63.7382 69.8701 63.7382 69.8153 63.7382 69.7058C63.7382 69.651 63.7382 69.5415 63.793 69.4868L64.1215 67.7345C64.1762 67.5155 64.1762 67.3512 64.231 67.187C64.231 67.0227 64.2858 66.8584 64.2858 66.7489C64.2858 66.3656 64.1763 66.0371 63.9025 65.818C63.6287 65.599 63.2454 65.4895 62.8073 65.4895C62.5335 65.4895 62.2598 65.5442 62.0407 65.599C61.8217 65.6538 61.5479 65.7633 61.3289 65.9276C61.3289 65.9276 61.3289 65.9823 61.3289 66.0371C61.3289 66.0918 61.3289 66.0918 61.3289 66.0918C61.3289 66.2013 61.3289 66.2561 61.3289 66.3656C61.3289 66.4751 61.2741 66.5846 61.2741 66.6394L61.4384 66.6941C61.5479 66.4204 61.7669 66.2561 61.986 66.0918C62.205 65.9276 62.4788 65.8728 62.7526 65.8728C63.0264 65.8728 63.2454 65.9276 63.3549 66.0918C63.5192 66.2561 63.5739 66.4204 63.5739 66.6941C63.5739 66.9679 63.5192 67.187 63.4644 67.2965C63.4097 67.4608 63.3001 67.5155 63.1906 67.5703L62.3693 67.7345C61.6027 67.8988 61.1099 68.1178 60.7813 68.3369C60.5075 68.6106 60.3433 68.9939 60.3433 69.432C60.3433 69.8153 60.4528 70.0891 60.6718 70.3081C60.8908 70.5271 61.1646 70.6367 61.5479 70.6367C61.8217 70.6367 62.0955 70.5819 62.3145 70.4724C62.4788 70.3629 62.6978 70.1439 62.9168 69.8701ZM63.1906 67.9536L62.3693 68.1726C61.8765 68.2821 61.5479 68.4464 61.3289 68.6654C61.1099 68.8844 61.0003 69.1035 61.0003 69.432C61.0003 69.651 61.0551 69.8701 61.2194 69.9796C61.3289 70.1438 61.4932 70.1986 61.7122 70.1986C61.986 70.1986 62.2598 70.0891 62.5335 69.8701C62.7526 69.651 62.9168 69.432 62.9716 69.1582L63.1906 67.9536ZM64.9976 70.5819C65.3261 69.1035 65.6547 67.7345 65.8737 66.4204C66.0928 65.1062 66.257 63.9015 66.3665 62.8064C66.5856 62.8612 66.7498 62.8611 66.8046 62.8611C66.8594 62.8611 66.9141 62.8611 67.0236 62.8611C67.0784 62.8611 67.1879 62.8612 67.3522 62.8064C67.0236 64.1753 66.7498 65.5442 66.5308 66.8584C66.3118 68.1726 66.0928 69.432 65.9832 70.6367C65.8737 70.6367 65.7642 70.5819 65.7095 70.5819C65.6547 70.5819 65.5452 70.5819 65.4904 70.5819C65.4357 70.5819 65.3809 70.5819 65.3261 70.5819C65.2714 70.5271 65.1619 70.5819 64.9976 70.5819ZM70.2543 65.8728C69.7067 65.8728 69.2687 66.1466 68.9401 66.7489C68.5568 67.2965 68.3925 68.0083 68.3925 68.8297C68.3925 69.3225 68.5021 69.7058 68.7211 69.9248C68.9401 70.1986 69.2139 70.3081 69.5972 70.3081C70.1448 70.3081 70.5828 70.0343 70.9661 69.432C71.3494 68.8297 71.5685 68.1726 71.5685 67.3512C71.5685 66.9132 71.4589 66.5299 71.2399 66.2561C70.9661 65.9823 70.6376 65.8728 70.2543 65.8728ZM67.4617 68.5011C67.4617 67.6798 67.7355 66.9679 68.2283 66.3656C68.7211 65.7633 69.3782 65.4895 70.1448 65.4895C70.8566 65.4895 71.4042 65.6538 71.8422 66.0918C72.2255 66.4751 72.4446 67.0227 72.4446 67.6798C72.4446 68.5011 72.1708 69.2677 71.6232 69.8153C71.0756 70.4176 70.4186 70.6914 69.652 70.6914C68.9949 70.6914 68.4473 70.4724 68.064 70.0891C67.6807 69.7058 67.4617 69.1582 67.4617 68.5011ZM72.9374 70.5819C73.1564 69.5963 73.3755 68.7202 73.485 67.844C73.6492 66.9679 73.704 66.2561 73.7588 65.599C73.8683 65.599 73.923 65.599 73.9778 65.6538C74.0325 65.6538 74.1421 65.6538 74.1968 65.6538C74.2516 65.6538 74.3611 65.6538 74.4158 65.6538C74.4706 65.6538 74.5801 65.6538 74.6349 65.599C74.5801 65.7633 74.5253 65.9276 74.5253 66.0918C74.4706 66.2561 74.4706 66.4204 74.4158 66.6394C74.6349 66.3109 74.8539 66.0371 75.1277 65.818C75.4015 65.599 75.6205 65.5443 75.8395 65.5443C75.8943 65.5443 75.949 65.5443 75.949 65.5443C76.0038 65.5443 76.0585 65.5442 76.1133 65.599C76.0585 65.7633 76.0585 65.8728 76.0038 66.0371C76.0038 66.2013 75.949 66.3109 75.949 66.4751C75.8395 66.4751 75.73 66.4204 75.6752 66.4204C75.6205 66.4204 75.511 66.4204 75.4562 66.4204C75.0182 66.4204 74.6896 66.6942 74.4158 67.2965C74.1968 67.8988 73.9778 68.994 73.8135 70.6914C73.704 70.6914 73.5945 70.6367 73.5397 70.6367C73.485 70.6367 73.3755 70.6367 73.3207 70.6367C73.2659 70.6367 73.2112 70.6367 73.1564 70.6367C73.1564 70.5272 73.1017 70.5819 72.9374 70.5819ZM77.318 67.5703C77.4275 67.5703 77.537 67.5703 77.7013 67.5703C78.0846 67.5703 78.3583 67.5703 78.4679 67.5703C78.6321 67.5703 78.9059 67.5703 79.2892 67.5703C79.4535 67.5703 79.563 67.5703 79.6725 67.5703C79.6725 67.4607 79.6725 67.3512 79.6725 67.2965C79.6725 67.2417 79.6725 67.1322 79.6725 67.0775C79.6725 66.6942 79.6178 66.3656 79.4535 66.1466C79.2892 65.9275 79.0702 65.818 78.7964 65.818C78.4679 65.818 78.1393 65.9823 77.8655 66.2561C77.5917 66.6394 77.4275 67.0775 77.318 67.5703ZM77.2085 68.0083C77.2085 68.1178 77.2084 68.2273 77.1537 68.3369C77.1537 68.4464 77.1537 68.5559 77.1537 68.6654C77.1537 69.1582 77.2632 69.5415 77.4822 69.8153C77.7013 70.0891 78.0298 70.1986 78.4679 70.1986C78.7416 70.1986 78.9607 70.1438 79.2345 69.9796C79.4535 69.8701 79.7273 69.651 80.0011 69.3772L80.1106 69.4868C80.0558 69.5963 80.0011 69.7058 80.0011 69.8153C79.9463 69.9248 79.9463 70.0343 79.8915 70.1439C79.6178 70.3081 79.344 70.4724 79.0702 70.5271C78.7964 70.6367 78.5774 70.6367 78.3036 70.6367C77.6465 70.6367 77.1537 70.4176 76.7704 70.0343C76.3871 69.651 76.2228 69.1035 76.2228 68.3916C76.2228 67.5155 76.4966 66.8037 76.9347 66.2013C77.4275 65.599 78.0298 65.3252 78.7964 65.3252C79.344 65.3252 79.782 65.4895 80.1106 65.8728C80.4391 66.2561 80.5486 66.7489 80.5486 67.3512C80.5486 67.406 80.5486 67.4607 80.5486 67.5703C80.5486 67.6798 80.5486 67.7893 80.5486 67.8988H80.3296C79.6178 67.8988 79.0702 67.8988 78.7964 67.8988C78.7416 67.8988 78.5226 67.8988 78.1941 67.8988C77.8108 68.0083 77.4822 68.0083 77.2085 68.0083ZM81.0415 69.213H81.2057C81.2605 69.5415 81.37 69.8153 81.589 69.9796C81.808 70.1986 82.0271 70.2534 82.3556 70.2534C82.6294 70.2534 82.9032 70.1438 83.0675 69.9796C83.2317 69.8153 83.3412 69.5415 83.3412 69.2677C83.3412 68.9392 83.0675 68.6106 82.4104 68.3369C82.3556 68.3369 82.3556 68.2821 82.3009 68.2821C81.9176 68.1178 81.6438 67.9536 81.4795 67.7345C81.3152 67.5155 81.2605 67.2965 81.2605 66.9679C81.2605 66.5299 81.4247 66.1466 81.6985 65.818C82.0271 65.5443 82.4104 65.38 82.9032 65.38C83.177 65.38 83.396 65.4347 83.615 65.4895C83.8341 65.5442 84.0531 65.6538 84.2174 65.7633C84.1626 65.8728 84.1078 66.0371 84.0531 66.1466C83.9983 66.2561 83.9983 66.4204 83.9436 66.5846H83.8341C83.7245 66.3108 83.615 66.0918 83.4508 65.9823C83.2865 65.8728 83.0675 65.7633 82.8484 65.7633C82.5746 65.7633 82.4104 65.818 82.2461 65.9823C82.0818 66.1466 82.0271 66.3656 82.0271 66.5846C82.0271 66.9132 82.3009 67.2417 82.9032 67.4607C82.9579 67.4607 82.9579 67.5155 83.0127 67.5155C83.4508 67.6798 83.7245 67.8988 83.8888 68.0631C84.0531 68.2821 84.1078 68.5011 84.1078 68.8297C84.1078 69.3225 83.9436 69.7606 83.615 70.0891C83.2865 70.4176 82.7937 70.5819 82.2461 70.5819C81.9723 70.5819 81.6985 70.5272 81.4247 70.4176C81.151 70.3081 80.9319 70.1986 80.7677 70.0343C80.8224 69.8701 80.8772 69.7058 80.9319 69.5415C80.9319 69.4868 80.9867 69.3772 81.0415 69.213ZM87.1742 70.5819C87.6123 68.9939 87.9408 67.5703 88.2146 66.3108C88.4884 65.0514 88.6527 64.1206 88.7074 63.4635C88.817 63.4635 88.9265 63.5182 88.9812 63.5182C89.036 63.5182 89.0907 63.5182 89.1455 63.5182C89.2002 63.5182 89.255 63.5182 89.3098 63.5182C89.3645 63.5182 89.474 63.5182 89.5835 63.4635C89.6383 63.9015 89.8573 64.7777 90.1859 66.0918C90.2406 66.2561 90.2406 66.3656 90.2954 66.4751L90.9525 69.1035L92.7047 66.2013C92.7595 66.1466 92.8142 65.9823 92.9237 65.818C93.5261 64.8324 94.0189 64.011 94.3474 63.4087C94.4569 63.4087 94.5665 63.4635 94.6212 63.4635C94.676 63.4635 94.7307 63.4635 94.7855 63.4635C94.8402 63.4635 94.895 63.4635 94.9498 63.4635C95.0045 63.4635 95.114 63.4635 95.2783 63.4087C94.9498 64.7776 94.676 66.0918 94.5117 67.2965C94.2927 68.5011 94.1284 69.5963 94.0736 70.5271C93.9094 70.5271 93.7999 70.4724 93.7451 70.4724C93.6356 70.4724 93.5808 70.4724 93.5261 70.4724C93.4713 70.4724 93.4165 70.4724 93.307 70.4724C93.2523 70.4724 93.088 70.4724 92.9785 70.5271C93.088 70.0343 93.2523 69.5415 93.3618 69.0487C93.4713 68.5559 93.5808 68.1726 93.6356 67.7345L94.2379 64.6681L91.9929 68.3916L91.9381 68.5011C91.5001 69.213 91.1168 69.8701 90.843 70.4724H90.5144C90.2406 69.432 89.9669 68.3916 89.7478 67.4607C89.474 66.5299 89.255 65.599 89.036 64.7229L88.5979 66.9679C88.4337 67.7893 88.3241 68.4464 88.2146 68.9392C88.1051 69.4868 88.0504 69.9796 87.9956 70.4724C87.8861 70.4724 87.7766 70.4176 87.7218 70.4176C87.6671 70.4176 87.6123 70.4176 87.6123 70.4176C87.5575 70.4176 87.5028 70.4176 87.448 70.4176C87.3933 70.5272 87.2838 70.5819 87.1742 70.5819Z" fill="white"></path>
<path fill-rule="evenodd" clip-rule="evenodd" d="M98.4533 65.9276C97.9057 65.9276 97.4676 66.2013 97.1391 66.8037C96.7558 67.3512 96.5915 68.0631 96.5915 68.8844C96.5915 69.3772 96.701 69.7605 96.9201 70.0343C97.1391 70.3081 97.4129 70.4176 97.7962 70.4176C98.3437 70.4176 98.7818 70.1439 99.1651 69.5415C99.5484 68.994 99.7674 68.2821 99.7674 67.4607C99.7674 67.0227 99.6579 66.6394 99.4389 66.3656C99.2199 66.0918 98.8913 65.9276 98.4533 65.9276ZM95.6606 68.5559C95.6606 67.7345 95.9344 67.0227 96.4272 66.4204C96.9201 65.818 97.5771 65.5443 98.3437 65.5443C99.0556 65.5443 99.6032 65.7633 100.041 66.1466C100.425 66.5299 100.644 67.0774 100.644 67.7893C100.644 68.6106 100.37 69.3772 99.8222 69.9248C99.2746 70.5271 98.6175 70.8009 97.8509 70.8009C97.1938 70.8009 96.6463 70.5819 96.263 70.1986C95.8797 69.7605 95.6606 69.213 95.6606 68.5559ZM101.027 70.6367C101.191 70.0343 101.41 69.1035 101.684 67.7345C101.958 66.3656 102.231 64.7229 102.56 62.8064C102.67 62.8064 102.724 62.8611 102.834 62.8611C102.889 62.8611 102.998 62.8611 102.998 62.8611C103.053 62.8611 103.108 62.8611 103.217 62.8611C103.327 62.8611 103.381 62.8612 103.491 62.8064C103.272 63.5182 103.108 64.3944 102.889 65.4347C102.834 65.599 102.834 65.7633 102.779 65.8728L102.67 66.3656C102.889 66.0918 103.162 65.8728 103.436 65.7085C103.71 65.599 103.984 65.4895 104.312 65.4895C104.86 65.4895 105.298 65.6538 105.572 66.0371C105.9 66.4204 106.064 66.9132 106.064 67.5703C106.064 68.4464 105.791 69.213 105.298 69.8153C104.805 70.4176 104.203 70.6914 103.436 70.6914C103.108 70.6914 102.834 70.6367 102.615 70.5271C102.341 70.4176 102.122 70.2534 101.848 69.9796C101.739 70.0891 101.629 70.1438 101.574 70.2534C101.465 70.3629 101.41 70.4724 101.301 70.5819H101.027V70.6367ZM103.381 70.3081C103.874 70.3081 104.312 70.0343 104.641 69.4868C104.969 68.9392 105.134 68.2821 105.134 67.4607C105.134 67.0227 105.024 66.6394 104.86 66.4204C104.696 66.2013 104.422 66.0371 104.093 66.0371C103.546 66.0371 103.108 66.3108 102.779 66.8584C102.451 67.406 102.286 68.0631 102.286 68.8844C102.286 69.3225 102.396 69.651 102.56 69.8701C102.779 70.1439 103.053 70.3081 103.381 70.3081ZM107.817 63.792C107.817 63.6278 107.871 63.5182 107.926 63.4087C108.036 63.2992 108.145 63.2445 108.255 63.2445C108.419 63.2445 108.529 63.2992 108.583 63.354C108.693 63.4635 108.693 63.573 108.693 63.7373C108.693 63.9015 108.638 64.011 108.529 64.1206C108.419 64.2301 108.31 64.2848 108.2 64.2848C108.036 64.2848 107.926 64.2301 107.871 64.1206C107.871 64.0658 107.817 63.9563 107.817 63.792ZM106.667 70.6367C106.941 69.5415 107.16 68.5559 107.269 67.7345C107.433 66.8584 107.488 66.2013 107.488 65.6538C107.598 65.6538 107.652 65.6538 107.762 65.7085C107.817 65.7085 107.926 65.7085 107.981 65.7085C108.036 65.7085 108.145 65.7085 108.255 65.7085C108.364 65.7085 108.419 65.7085 108.529 65.6538C108.255 66.6394 108.091 67.5703 107.926 68.3916C107.762 69.2677 107.707 69.9796 107.652 70.6367C107.488 70.6367 107.379 70.5819 107.324 70.5819C107.269 70.5819 107.16 70.5819 107.105 70.5819C107.05 70.5819 106.995 70.5819 106.941 70.5819C106.941 70.5819 106.831 70.5819 106.667 70.6367ZM109.076 70.6367C109.405 69.1582 109.733 67.7893 109.952 66.4751C110.171 65.161 110.336 63.9563 110.445 62.8064C110.664 62.8612 110.828 62.8611 110.883 62.8611C110.938 62.8611 110.993 62.8611 111.102 62.8611C111.157 62.8611 111.266 62.8612 111.431 62.8064C111.102 64.1753 110.828 65.5442 110.609 66.8584C110.39 68.1726 110.171 69.432 110.062 70.6367C109.952 70.6367 109.843 70.5819 109.788 70.5819C109.733 70.5819 109.624 70.5819 109.569 70.5819C109.514 70.5819 109.459 70.5819 109.405 70.5819C109.35 70.5819 109.24 70.5819 109.076 70.6367ZM112.69 63.792C112.69 63.6278 112.745 63.5182 112.854 63.4087C112.964 63.2992 113.073 63.2445 113.183 63.2445C113.347 63.2445 113.457 63.2992 113.511 63.354C113.621 63.4635 113.621 63.573 113.621 63.7373C113.621 63.9015 113.566 64.011 113.457 64.1206C113.347 64.2301 113.238 64.2848 113.128 64.2848C113.019 64.2848 112.854 64.2301 112.8 64.1206C112.745 64.0658 112.69 63.9563 112.69 63.792ZM111.54 70.6367C111.814 69.5415 112.033 68.5559 112.143 67.7345C112.307 66.8584 112.362 66.2013 112.362 65.6538C112.471 65.6538 112.526 65.6538 112.635 65.7085C112.69 65.7085 112.8 65.7085 112.854 65.7085C112.909 65.7085 113.019 65.7085 113.128 65.7085C113.238 65.7085 113.292 65.7085 113.402 65.6538C113.128 66.6394 112.964 67.5703 112.8 68.3916C112.635 69.2677 112.581 69.9796 112.526 70.6367C112.362 70.6367 112.252 70.5819 112.197 70.5819C112.143 70.5819 112.033 70.5819 111.978 70.5819C111.924 70.5819 111.869 70.5819 111.814 70.5819C111.814 70.5819 111.704 70.5819 111.54 70.6367ZM116.468 69.9248C116.249 70.1986 116.03 70.4176 115.757 70.5271C115.537 70.6367 115.264 70.6914 114.99 70.6914C114.607 70.6914 114.333 70.5819 114.114 70.3629C113.895 70.1439 113.785 69.8701 113.785 69.4868C113.785 68.9939 113.95 68.6654 114.223 68.3916C114.497 68.1178 115.045 67.8988 115.811 67.7893L116.633 67.625C116.742 67.625 116.852 67.5155 116.906 67.3512C116.961 67.187 117.016 67.0227 117.016 66.7489C117.016 66.4751 116.961 66.2561 116.797 66.1466C116.633 65.9823 116.468 65.9276 116.195 65.9276C115.921 65.9276 115.647 65.9823 115.428 66.1466C115.209 66.3108 115.045 66.4751 114.88 66.7489L114.716 66.6941C114.716 66.5846 114.771 66.4751 114.771 66.4204C114.771 66.3108 114.771 66.2561 114.771 66.1466V66.0918C114.771 66.0371 114.771 66.0371 114.771 65.9823C114.99 65.818 115.264 65.7085 115.483 65.6538C115.757 65.599 115.976 65.5443 116.249 65.5443C116.742 65.5443 117.125 65.6538 117.344 65.8728C117.618 66.0918 117.728 66.4204 117.728 66.8037C117.728 66.9132 117.728 67.0774 117.673 67.2417C117.673 67.406 117.618 67.625 117.563 67.7893L117.235 69.5415C117.235 69.5963 117.18 69.7058 117.18 69.7605C117.18 69.8153 117.18 69.8701 117.18 69.9248C117.18 70.0343 117.18 70.0891 117.235 70.1439C117.29 70.1986 117.344 70.1986 117.454 70.1986C117.509 70.1986 117.563 70.1986 117.563 70.1986C117.618 70.1986 117.673 70.1439 117.783 70.1439L117.892 70.4176C117.728 70.5272 117.563 70.5819 117.454 70.6367C117.29 70.6914 117.18 70.6914 117.016 70.6914C116.797 70.6914 116.633 70.6367 116.523 70.4724C116.578 70.3629 116.468 70.1986 116.468 69.9248ZM116.797 68.0083L115.976 68.2274C115.483 68.3369 115.154 68.5011 114.935 68.7202C114.716 68.9392 114.607 69.1582 114.607 69.4868C114.607 69.7058 114.661 69.9248 114.826 70.0343C114.935 70.1986 115.154 70.2534 115.318 70.2534C115.592 70.2534 115.866 70.1438 116.14 69.9248C116.414 69.7058 116.523 69.4868 116.578 69.213L116.797 68.0083ZM116.03 64.9419H115.592L117.016 63.4635C117.125 63.354 117.235 63.2992 117.29 63.2445C117.399 63.1897 117.454 63.1349 117.563 63.1349C117.673 63.1349 117.783 63.1897 117.837 63.2445C117.892 63.2992 117.947 63.4087 117.947 63.5182C117.947 63.573 117.947 63.6825 117.892 63.7373C117.837 63.792 117.728 63.9015 117.618 63.9563L116.03 64.9419ZM118.549 70.6367C118.768 69.651 118.987 68.7749 119.151 67.8988C119.316 67.0227 119.37 66.2561 119.425 65.6538C119.535 65.6538 119.59 65.6538 119.644 65.7085C119.699 65.7085 119.809 65.7085 119.863 65.7085C119.918 65.7085 120.028 65.7085 120.082 65.7085C120.137 65.7085 120.247 65.7085 120.301 65.6538C120.247 65.818 120.192 65.9823 120.192 66.1466C120.137 66.3108 120.137 66.4751 120.137 66.6394C120.356 66.3109 120.575 66.0371 120.849 65.818C121.123 65.599 121.342 65.5443 121.561 65.5443C121.616 65.5443 121.67 65.5443 121.67 65.5443C121.725 65.5443 121.78 65.5442 121.835 65.599C121.78 65.7633 121.78 65.8728 121.725 66.0371C121.725 66.2013 121.67 66.3109 121.67 66.4751C121.561 66.4751 121.451 66.4204 121.396 66.4204C121.342 66.4204 121.287 66.4204 121.177 66.4204C120.739 66.4204 120.356 66.6942 120.137 67.2965C119.918 67.8988 119.699 68.994 119.535 70.6914C119.425 70.6914 119.316 70.6367 119.261 70.6367C119.206 70.6367 119.097 70.6367 119.042 70.6367C118.987 70.6367 118.932 70.6367 118.878 70.6367C118.823 70.5819 118.713 70.5819 118.549 70.6367ZM122.984 63.792C122.984 63.6278 123.039 63.5182 123.149 63.4087C123.258 63.2992 123.368 63.2445 123.477 63.2445C123.642 63.2445 123.751 63.2992 123.806 63.354C123.915 63.4635 123.915 63.573 123.915 63.7373C123.915 63.9015 123.861 64.011 123.806 64.1206C123.696 64.2301 123.587 64.2848 123.477 64.2848C123.313 64.2848 123.203 64.2301 123.149 64.1206C123.039 64.0658 122.984 63.9563 122.984 63.792ZM121.835 70.6367C122.108 69.5415 122.327 68.5559 122.437 67.7345C122.601 66.8584 122.656 66.2013 122.656 65.6538C122.765 65.6538 122.82 65.6538 122.93 65.7085C123.039 65.7085 123.094 65.7085 123.149 65.7085C123.203 65.7085 123.313 65.7085 123.423 65.7085C123.532 65.7085 123.587 65.7085 123.696 65.6538C123.423 66.6394 123.258 67.5703 123.094 68.3916C122.93 69.2677 122.875 69.9796 122.82 70.6367C122.656 70.6367 122.546 70.5819 122.492 70.5819C122.437 70.5819 122.327 70.5819 122.273 70.5819C122.218 70.5819 122.163 70.5819 122.108 70.5819C122.108 70.5819 121.999 70.5819 121.835 70.6367ZM127.091 65.9276C126.544 65.9276 126.106 66.2013 125.722 66.8037C125.339 67.3512 125.175 68.0631 125.175 68.8844C125.175 69.3772 125.284 69.7605 125.503 70.0343C125.722 70.3081 125.996 70.4176 126.379 70.4176C126.927 70.4176 127.365 70.1439 127.748 69.5415C128.132 68.994 128.351 68.2821 128.351 67.4607C128.351 67.0227 128.241 66.6394 128.022 66.3656C127.748 66.0371 127.475 65.9276 127.091 65.9276ZM124.299 68.5559C124.299 67.7345 124.572 67.0227 125.065 66.4204C125.558 65.818 126.215 65.5443 126.982 65.5443C127.694 65.5443 128.241 65.7633 128.679 66.1466C129.062 66.5299 129.282 67.0774 129.282 67.7893C129.282 68.6106 129.008 69.3772 128.46 69.9248C127.913 70.5271 127.256 70.8009 126.489 70.8009C125.832 70.8009 125.284 70.5819 124.901 70.1986C124.463 69.7605 124.299 69.213 124.299 68.5559ZM129.829 69.2677H129.993C130.048 69.5963 130.158 69.8701 130.377 70.0343C130.596 70.2534 130.815 70.3081 131.143 70.3081C131.417 70.3081 131.691 70.1986 131.855 70.0343C132.019 69.8701 132.129 69.5963 132.129 69.3225C132.129 68.994 131.855 68.6654 131.198 68.3916C131.143 68.3916 131.143 68.3369 131.088 68.3369C130.705 68.1726 130.431 68.0083 130.267 67.7893C130.103 67.5703 130.048 67.3512 130.048 67.0227C130.048 66.5846 130.212 66.2013 130.486 65.8728C130.815 65.599 131.198 65.4347 131.691 65.4347C131.965 65.4347 132.184 65.4895 132.403 65.5443C132.622 65.599 132.841 65.7085 133.005 65.818C132.95 65.9276 132.895 66.0918 132.841 66.2013C132.786 66.3656 132.786 66.4751 132.731 66.6394H132.622C132.512 66.3656 132.403 66.1466 132.238 66.0371C132.074 65.9275 131.855 65.818 131.636 65.818C131.417 65.818 131.198 65.8728 131.034 66.0371C130.869 66.2013 130.76 66.4204 130.76 66.6394C130.76 66.9679 131.034 67.2965 131.636 67.5155C131.691 67.5155 131.691 67.5703 131.746 67.5703C132.184 67.7345 132.457 67.9536 132.622 68.1178C132.786 68.3369 132.841 68.5559 132.841 68.8844C132.841 69.3772 132.676 69.8153 132.348 70.1439C132.019 70.4724 131.527 70.6367 130.979 70.6367C130.705 70.6367 130.431 70.5819 130.158 70.4724C129.884 70.3629 129.665 70.2534 129.501 70.0891C129.555 69.9248 129.61 69.7606 129.61 69.5963C129.72 69.5415 129.774 69.3773 129.829 69.2677Z" fill="white"></path>
<path fill-rule="evenodd" clip-rule="evenodd" d="M73.8114 57.1112C72.7163 57.604 71.5664 57.9325 70.4712 58.1515C69.3213 58.3706 68.1714 58.5348 67.0215 58.5348C63.4076 58.5348 60.6149 57.4945 58.5342 55.4684C56.5082 53.4424 55.4678 50.5951 55.4678 47.0358C55.4678 42.3267 56.8915 38.5485 59.6841 35.6464C62.4767 32.799 66.2002 31.3206 70.7998 31.3206C72.4972 31.3206 73.9757 31.4848 75.3446 31.8134C76.7135 32.1419 77.9182 32.6895 78.9038 33.3466C78.5753 34.0584 78.2467 34.7703 77.9729 35.5369C77.6992 36.2487 77.4801 37.0153 77.2611 37.7271L76.9873 37.5081C76.4397 36.2487 75.5636 35.2631 74.4137 34.5512C73.2638 33.8394 71.9497 33.5108 70.4712 33.5108C68.938 33.5108 67.6239 33.8394 66.474 34.5512C65.3241 35.2083 64.2837 36.3034 63.3528 37.6724C62.5314 38.9865 61.8196 40.5198 61.3815 42.272C60.8887 44.0242 60.6697 45.8312 60.6697 47.6929C60.6697 50.4855 61.272 52.6211 62.5314 54.1543C63.7361 55.6875 65.4883 56.4541 67.6786 56.4541C68.8285 56.4541 70.0332 56.235 71.1831 55.797C72.333 55.3589 73.4829 54.7566 74.578 53.8805L74.9065 54.1543C74.6875 54.7566 74.4685 55.2494 74.3042 55.7422C74.0852 56.235 73.9757 56.6731 73.8114 57.1112ZM102.066 57.9873C102.395 57.8778 102.668 57.823 102.887 57.7682C103.106 57.7135 103.38 57.7135 103.599 57.7135C103.818 57.7135 104.037 57.7135 104.311 57.7682C104.585 57.823 104.859 57.8778 105.242 57.9873C105.516 56.016 105.79 54.2638 106.063 52.6758C106.337 51.0879 106.556 49.8285 106.775 48.8428L108.746 40.3555C109.677 43.0386 110.499 45.8859 111.265 48.8976C112.032 51.9092 112.744 55.0304 113.401 58.3158H114.551C116.248 55.4137 118.055 52.5116 119.972 49.6094C121.888 46.7073 123.969 43.8599 126.159 41.0673C125.447 45.7764 124.845 49.4452 124.407 52.0735C123.969 54.7018 123.531 56.6731 123.148 58.042C123.64 57.9325 124.078 57.8778 124.571 57.823C125.064 57.7682 125.557 57.7682 126.05 57.7682C126.543 57.7682 127.035 57.7682 127.473 57.823C127.966 57.8778 128.35 57.9325 128.788 58.042C128.788 55.797 129.171 52.402 129.883 47.8572C130.595 43.3124 131.635 38.0009 132.894 31.9776C132.566 32.0324 132.292 32.0872 131.963 32.1419C131.635 32.1967 131.361 32.1967 131.033 32.1967C130.759 32.1967 130.43 32.1967 130.156 32.1419C129.883 32.0872 129.554 32.0324 129.28 31.9776C127.035 35.3178 124.9 38.439 122.819 41.4506C120.738 44.4623 118.712 47.3096 116.741 49.938C115.81 47.0906 114.934 44.1885 114.058 41.1768C113.182 38.1652 112.415 35.0988 111.649 31.9229C111.32 31.9776 111.046 32.0324 110.718 32.0872C110.389 32.1419 110.115 32.1419 109.842 32.1419C109.568 32.1419 109.239 32.1419 108.965 32.0872C108.692 32.0324 108.363 31.9776 108.035 31.9229C106.994 37.0153 105.954 41.7244 104.913 46.1597C104.037 50.4855 103.052 54.4828 102.066 57.9873Z" fill="white"></path>
<path fill-rule="evenodd" clip-rule="evenodd" d="M86.5715 57.9878C86.0787 53.881 85.4216 49.7195 84.7097 45.3389C83.9979 41.0131 83.1218 36.523 82.1909 31.8687C82.6837 31.9234 83.1765 31.9782 83.6146 32.0329C84.1074 32.0877 84.5455 32.0877 85.093 32.0877C85.5859 32.0877 86.1334 32.0877 86.6262 32.0329C87.1738 31.9782 87.6666 31.9234 88.2142 31.8687C88.5427 35.4279 88.8713 38.768 89.3093 41.9987C89.6926 45.1746 90.1855 48.241 90.6783 51.1979C92.7043 48.022 94.566 44.7913 96.3183 41.5607C98.0705 38.33 99.6037 35.0993 100.973 31.9234C101.246 31.9782 101.575 32.0329 101.849 32.0877C102.123 32.1424 102.451 32.1424 102.725 32.1424C102.999 32.1424 103.327 32.1424 103.656 32.0877C103.929 32.0329 104.258 31.9782 104.587 31.9234C102.451 35.5374 100.206 39.4799 97.8515 43.6962C95.4969 47.9125 92.8138 52.6764 89.9117 58.0426C89.6379 57.9878 89.3641 57.933 89.0903 57.8783C88.8165 57.8235 88.5427 57.8235 88.269 57.8235C87.9952 57.8235 87.7761 57.8235 87.5024 57.8783C87.1191 57.8235 86.8453 57.8783 86.5715 57.9878Z" fill="white"></path>
<path fill-rule="evenodd" clip-rule="evenodd" d="M2.62834 37.4536L0 33.9492V22.4502H2.62834V37.4536Z" fill="white"></path>
<path fill-rule="evenodd" clip-rule="evenodd" d="M41.7256 37.4536L44.3539 33.9492V22.4502H41.7256V37.4536Z" fill="white"></path>
</svg>