<svg width="134" height="80" viewBox="0 0 134 80" fill="none" xmlns="http://www.w3.org/2000/svg">
	<path d="M0.328543 77.9194C0.547571 78.0837 0.930871 78.1932 1.31417 78.1932C1.9165 78.1932 2.2998 77.8647 2.40931 77.4266C2.51883 76.9886 2.2998 76.7695 1.75223 76.5505C1.09514 76.2767 0.711843 75.8934 0.821357 75.2911C0.985628 74.5792 1.64271 74.0864 2.51883 74.0864C2.95688 74.0864 3.28543 74.1959 3.4497 74.3055L3.17591 74.7983C3.0664 74.7435 2.79261 74.5792 2.35456 74.5792C1.75223 74.5792 1.42369 74.9625 1.36893 75.2363C1.25941 75.6744 1.5332 75.8387 2.08077 76.1124C2.79261 76.3862 3.0664 76.7695 2.95688 77.4266C2.79261 78.1385 2.19028 78.7408 1.09514 78.7408C0.657085 78.7408 0.219028 78.6313 0 78.467L0.328543 77.9194Z" fill="white"/>
	<path d="M4.16115 77.1527C3.99687 77.9193 4.43493 78.2478 5.03726 78.2478C5.47532 78.2478 5.7491 78.1931 5.96813 78.0836V78.5216C5.7491 78.6311 5.3658 78.7406 4.87299 78.7406C3.88736 78.7406 3.4493 78.0835 3.61358 77.0979C3.77785 76.1123 4.54445 75.3457 5.47532 75.3457C6.5157 75.3457 6.62522 76.2766 6.46094 76.8789C6.46094 76.9884 6.40619 77.0979 6.40619 77.1527H4.16115ZM5.96813 76.7146C6.07764 76.3313 6.02289 75.7838 5.3658 75.7838C4.76347 75.7838 4.38017 76.3313 4.27066 76.7146H5.96813Z" fill="white"/>
	<path d="M9.14456 78.5216C8.98029 78.5764 8.59699 78.6859 8.15893 78.6859C7.1733 78.6859 6.68049 78.0288 6.89952 77.0432C7.11855 76.0575 7.9399 75.3457 8.98029 75.3457C9.30883 75.3457 9.63737 75.4552 9.74689 75.51L9.52786 75.948C9.41834 75.8933 9.19932 75.7838 8.87077 75.7838C8.15893 75.7838 7.61136 76.3313 7.44709 76.9884C7.28282 77.755 7.66612 78.1931 8.3232 78.1931C8.65174 78.1931 8.87077 78.0836 9.0898 78.0288L9.14456 78.5216Z" fill="white"/>
	<path fill-rule="evenodd" clip-rule="evenodd" d="M22.2323 55.633L44.4089 33.1826V57.9876H0.0556641V33.1826L22.2323 55.633Z" fill="white"/>
	<path fill-rule="evenodd" clip-rule="evenodd" d="M22.2323 0L44.4089 22.4504L22.2323 44.9008L0.0556641 22.4504L22.2323 0ZM22.2323 10.7872L10.6785 22.5052L22.2323 34.2232L33.786 22.5052L22.2323 10.7872Z" fill="white"/>
	<path fill-rule="evenodd" clip-rule="evenodd" d="M22.23 0V10.7872L33.7837 22.4504H44.4066L22.23 0Z" fill="white"/>
	<path fill-rule="evenodd" clip-rule="evenodd" d="M73.8114 57.1112C72.7163 57.604 71.5664 57.9325 70.4712 58.1515C69.3213 58.3706 68.1714 58.5348 67.0215 58.5348C63.4076 58.5348 60.6149 57.4945 58.5342 55.4684C56.5082 53.4424 55.4678 50.5951 55.4678 47.0358C55.4678 42.3267 56.8915 38.5485 59.6841 35.6464C62.4767 32.799 66.2002 31.3206 70.7998 31.3206C72.4972 31.3206 73.9757 31.4848 75.3446 31.8134C76.7135 32.1419 77.9182 32.6895 78.9038 33.3466C78.5753 34.0584 78.2467 34.7703 77.9729 35.5369C77.6992 36.2487 77.4801 37.0153 77.2611 37.7271L76.9873 37.5081C76.4397 36.2487 75.5636 35.2631 74.4137 34.5512C73.2638 33.8394 71.9497 33.5108 70.4712 33.5108C68.938 33.5108 67.6239 33.8394 66.474 34.5512C65.3241 35.2083 64.2837 36.3034 63.3528 37.6724C62.5314 38.9865 61.8196 40.5198 61.3815 42.272C60.8887 44.0242 60.6697 45.8312 60.6697 47.6929C60.6697 50.4855 61.272 52.6211 62.5314 54.1543C63.7361 55.6875 65.4883 56.4541 67.6786 56.4541C68.8285 56.4541 70.0332 56.235 71.1831 55.797C72.333 55.3589 73.4829 54.7566 74.578 53.8805L74.9065 54.1543C74.6875 54.7566 74.4685 55.2494 74.3042 55.7422C74.0852 56.235 73.9757 56.6731 73.8114 57.1112ZM102.066 57.9873C102.395 57.8778 102.668 57.823 102.887 57.7682C103.106 57.7135 103.38 57.7135 103.599 57.7135C103.818 57.7135 104.037 57.7135 104.311 57.7682C104.585 57.823 104.859 57.8778 105.242 57.9873C105.516 56.016 105.79 54.2638 106.063 52.6758C106.337 51.0879 106.556 49.8285 106.775 48.8428L108.746 40.3555C109.677 43.0386 110.499 45.8859 111.265 48.8976C112.032 51.9092 112.744 55.0304 113.401 58.3158H114.551C116.248 55.4137 118.055 52.5116 119.972 49.6094C121.888 46.7073 123.969 43.8599 126.159 41.0673C125.447 45.7764 124.845 49.4452 124.407 52.0735C123.969 54.7018 123.531 56.6731 123.148 58.042C123.64 57.9325 124.078 57.8778 124.571 57.823C125.064 57.7682 125.557 57.7682 126.05 57.7682C126.543 57.7682 127.035 57.7682 127.473 57.823C127.966 57.8778 128.35 57.9325 128.788 58.042C128.788 55.797 129.171 52.402 129.883 47.8572C130.595 43.3124 131.635 38.0009 132.894 31.9776C132.566 32.0324 132.292 32.0872 131.963 32.1419C131.635 32.1967 131.361 32.1967 131.033 32.1967C130.759 32.1967 130.43 32.1967 130.156 32.1419C129.883 32.0872 129.554 32.0324 129.28 31.9776C127.035 35.3178 124.9 38.439 122.819 41.4506C120.738 44.4623 118.712 47.3096 116.741 49.938C115.81 47.0906 114.934 44.1885 114.058 41.1768C113.182 38.1652 112.415 35.0988 111.649 31.9229C111.32 31.9776 111.046 32.0324 110.718 32.0872C110.389 32.1419 110.115 32.1419 109.842 32.1419C109.568 32.1419 109.239 32.1419 108.965 32.0872C108.692 32.0324 108.363 31.9776 108.035 31.9229C106.994 37.0153 105.954 41.7244 104.913 46.1597C104.037 50.4855 103.052 54.4828 102.066 57.9873Z" fill="white"/>
	<path fill-rule="evenodd" clip-rule="evenodd" d="M86.5715 57.9878C86.0787 53.881 85.4216 49.7195 84.7097 45.3389C83.9979 41.0131 83.1218 36.523 82.1909 31.8687C82.6837 31.9234 83.1765 31.9782 83.6146 32.0329C84.1074 32.0877 84.5455 32.0877 85.093 32.0877C85.5859 32.0877 86.1334 32.0877 86.6262 32.0329C87.1738 31.9782 87.6666 31.9234 88.2142 31.8687C88.5427 35.4279 88.8713 38.768 89.3093 41.9987C89.6926 45.1746 90.1855 48.241 90.6783 51.1979C92.7043 48.022 94.566 44.7913 96.3183 41.5607C98.0705 38.33 99.6037 35.0993 100.973 31.9234C101.246 31.9782 101.575 32.0329 101.849 32.0877C102.123 32.1424 102.451 32.1424 102.725 32.1424C102.999 32.1424 103.327 32.1424 103.656 32.0877C103.929 32.0329 104.258 31.9782 104.587 31.9234C102.451 35.5374 100.206 39.4799 97.8515 43.6962C95.4969 47.9125 92.8138 52.6764 89.9117 58.0426C89.6379 57.9878 89.3641 57.933 89.0903 57.8783C88.8165 57.8235 88.5427 57.8235 88.269 57.8235C87.9952 57.8235 87.7761 57.8235 87.5024 57.8783C87.1191 57.8235 86.8453 57.8783 86.5715 57.9878Z" fill="white"/>
	<path fill-rule="evenodd" clip-rule="evenodd" d="M2.62834 37.4536L0 33.9492V22.4502H2.62834V37.4536Z" fill="white"/>
	<path fill-rule="evenodd" clip-rule="evenodd" d="M41.7256 37.4536L44.3539 33.9492V22.4502H41.7256V37.4536Z" fill="white"/>
</svg>
