<svg width="216" height="18" viewBox="0 0 216 18" fill="none" xmlns="http://www.w3.org/2000/svg">
<path d="M4.24179 8.13412C2.72149 7.95091 1.14038 7.43179 1.14038 6.88213C1.14038 5.93551 2.63027 5.44693 4.02895 5.44693H4.33301C5.8229 5.44693 7.19117 6.27141 7.19117 6.91267V7.24857C7.19117 7.34018 7.28239 7.43179 7.3736 7.43179H7.98172C8.07294 7.43179 8.16416 7.34018 8.16416 7.24857V6.88213C8.16416 5.47746 6.09655 4.43923 4.2722 4.43923H3.93773C2.08297 4.46976 0.0761719 5.23317 0.0761719 6.88213C0.0761719 8.71432 3.66408 9.05021 4.05935 9.08075C5.48843 9.2029 7.16076 9.78309 7.16076 10.3327C7.16076 11.2794 5.67087 11.7985 4.3026 11.7985H3.96814C2.47824 11.7985 1.10997 10.974 1.10997 10.3327V9.99684C1.10997 9.90523 1.01876 9.81362 0.927539 9.81362H0.31942C0.228202 9.81362 0.136984 9.90523 0.136984 9.99684V10.3327C0.136984 11.7374 2.20459 12.7756 4.02895 12.7756H4.33301C6.21818 12.7756 8.22497 12.0122 8.22497 10.3327C8.22497 8.5311 4.66747 8.16466 4.24179 8.13412ZM20.2657 4.40869H19.6576C19.5664 4.40869 19.4752 4.5003 19.4752 4.59191V10.3022C19.4752 11.2488 17.9853 11.7679 16.617 11.7679H16.2826C14.7927 11.7679 13.4244 10.9435 13.4244 10.3022V4.59191C13.4244 4.5003 13.3332 4.40869 13.242 4.40869H12.6338C12.5426 4.40869 12.4514 4.5003 12.4514 4.59191V10.3633C12.4514 11.7679 14.519 12.8062 16.3434 12.8062H16.6778C18.1069 12.8062 19.3232 12.4092 19.9617 11.7069C20.3265 11.3099 20.509 10.8519 20.4482 10.3022V4.59191C20.4178 4.5003 20.357 4.40869 20.2657 4.40869ZM31.82 11.1572C31.82 11.3099 31.6072 11.4015 31.5159 11.2794L26.4077 4.74459C26.2253 4.53084 25.9821 4.40869 25.678 4.40869C25.5564 4.40869 25.4348 4.43923 25.3131 4.46976C24.9787 4.62245 24.7354 4.92781 24.7354 5.29425V12.5924C24.7354 12.684 24.8266 12.7756 24.9179 12.7756H25.526C25.6172 12.7756 25.7084 12.684 25.7084 12.5924L25.7692 6.02712C25.7692 5.87444 25.9821 5.78283 26.0733 5.93551L31.1511 12.4703C31.3031 12.684 31.5768 12.8062 31.8504 12.8062C31.972 12.8062 32.0937 12.7756 32.2153 12.7451C32.5497 12.623 32.793 12.2871 32.793 11.9206V4.59191C32.793 4.5003 32.7018 4.40869 32.6106 4.40869H32.0024C31.9112 4.40869 31.82 4.5003 31.82 4.59191V11.1572ZM41.9756 4.40869C39.2391 4.40869 36.989 6.27141 36.989 8.59217C36.989 10.9129 39.2087 12.7756 41.9756 12.7756C44.7121 12.7756 46.9622 10.9129 46.9622 8.59217C46.9622 6.27141 44.7121 4.40869 41.9756 4.40869ZM41.9756 11.8596C39.8168 11.8596 38.0228 10.3938 38.0228 8.65324C38.0228 6.88213 39.7864 5.44693 41.9756 5.44693C44.1952 5.44693 45.9284 6.8516 45.9284 8.65324C45.9284 10.4244 44.1648 11.8596 41.9756 11.8596Z" fill="white"/>
<mask id="mask0" mask-type="alpha" maskUnits="userSpaceOnUse" x="58" y="0" width="4" height="18">
<path d="M58.1284 17.2149V0H61.4968V17.2149H58.1284Z" fill="#FF0000"/>
</mask>
<g mask="url(#mask0)">
<path fill-rule="evenodd" clip-rule="evenodd" d="M59.9672 0.000732422H61.4961C60.8629 1.8099 60.2124 5.38482 60.2124 8.60793C60.2124 11.8314 60.8629 15.4063 61.4961 17.2155H59.9672C59.0271 15.344 58.1277 12.5098 58.1277 8.60793C58.1277 4.70643 59.0271 1.87242 59.9672 0.000732422Z" fill="#D42126"/>
</g>
<path d="M77.4055 12.5819C76.689 12.5819 76.0407 12.4249 75.4607 12.111C74.8875 11.7903 74.4371 11.3536 74.1096 10.8008C73.782 10.2413 73.6183 9.61349 73.6183 8.91745C73.6183 8.22141 73.782 7.59702 74.1096 7.04428C74.4371 6.48472 74.8909 6.04799 75.471 5.73409C76.051 5.41337 76.6993 5.25301 77.4158 5.25301C77.9753 5.25301 78.4871 5.34854 78.9511 5.53961C79.4152 5.72386 79.811 6.00023 80.1385 6.36872L79.4732 7.01358C78.9341 6.44719 78.2619 6.164 77.4567 6.164C76.9244 6.164 76.4434 6.28342 76.0135 6.52226C75.5835 6.76109 75.2458 7.09205 75.0001 7.51513C74.7613 7.93139 74.6418 8.39883 74.6418 8.91745C74.6418 9.43606 74.7613 9.90691 75.0001 10.33C75.2458 10.7463 75.5835 11.0738 76.0135 11.3126C76.4434 11.5515 76.9244 11.6709 77.4567 11.6709C78.2551 11.6709 78.9273 11.3843 79.4732 10.8111L80.1385 11.4559C79.811 11.8244 79.4118 12.1042 78.9409 12.2953C78.4769 12.4864 77.9651 12.5819 77.4055 12.5819ZM89.8012 12.5819C89.0779 12.5819 88.4262 12.4249 87.8462 12.111C87.2662 11.7903 86.809 11.3502 86.4746 10.7906C86.147 10.2311 85.9833 9.60666 85.9833 8.91745C85.9833 8.22823 86.147 7.60384 86.4746 7.04428C86.809 6.48472 87.2662 6.04799 87.8462 5.73409C88.4262 5.41337 89.0779 5.25301 89.8012 5.25301C90.5178 5.25301 91.166 5.41337 91.7461 5.73409C92.3261 6.04799 92.7799 6.48472 93.1074 7.04428C93.435 7.59702 93.5987 8.22141 93.5987 8.91745C93.5987 9.61349 93.435 10.2413 93.1074 10.8008C92.7799 11.3536 92.3261 11.7903 91.7461 12.111C91.166 12.4249 90.5178 12.5819 89.8012 12.5819ZM89.8012 11.6709C90.3267 11.6709 90.7975 11.5515 91.2138 11.3126C91.6369 11.0738 91.9678 10.7463 92.2067 10.33C92.4523 9.90691 92.5752 9.43606 92.5752 8.91745C92.5752 8.39883 92.4523 7.93139 92.2067 7.51513C91.9678 7.09205 91.6369 6.76109 91.2138 6.52226C90.7975 6.28342 90.3267 6.164 89.8012 6.164C89.2758 6.164 88.7981 6.28342 88.3682 6.52226C87.9451 6.76109 87.6108 7.09205 87.3651 7.51513C87.1263 7.93139 87.0068 8.39883 87.0068 8.91745C87.0068 9.43606 87.1263 9.90691 87.3651 10.33C87.6108 10.7463 87.9451 11.0738 88.3682 11.3126C88.7981 11.5515 89.2758 11.6709 89.8012 11.6709ZM106.443 5.33489V12.5H105.604L101.305 7.15688V12.5H100.281V5.33489H101.121L105.42 10.678V5.33489H106.443ZM115.794 12.5819C115.255 12.5819 114.733 12.5 114.228 12.3362C113.73 12.1656 113.337 11.9473 113.051 11.6811L113.429 10.8827C113.702 11.1284 114.05 11.3297 114.473 11.4866C114.903 11.6368 115.343 11.7118 115.794 11.7118C116.388 11.7118 116.831 11.6129 117.125 11.415C117.418 11.2103 117.565 10.9407 117.565 10.6064C117.565 10.3607 117.483 10.1628 117.319 10.0127C117.162 9.85574 116.964 9.73632 116.725 9.65443C116.493 9.57254 116.162 9.48042 115.732 9.37806C115.193 9.24841 114.757 9.11875 114.422 8.9891C114.095 8.85944 113.812 8.66155 113.573 8.39542C113.341 8.12246 113.225 7.75738 113.225 7.30018C113.225 6.91804 113.324 6.57343 113.521 6.26636C113.726 5.95928 114.033 5.71362 114.443 5.52938C114.852 5.34513 115.361 5.25301 115.968 5.25301C116.391 5.25301 116.807 5.3076 117.217 5.41678C117.626 5.52596 117.978 5.68291 118.271 5.88763L117.933 6.7065C117.633 6.51543 117.312 6.37213 116.971 6.27659C116.63 6.17424 116.295 6.12306 115.968 6.12306C115.388 6.12306 114.951 6.22883 114.658 6.44037C114.371 6.65191 114.228 6.92487 114.228 7.25924C114.228 7.5049 114.31 7.7062 114.473 7.86315C114.637 8.01328 114.839 8.1327 115.077 8.22141C115.323 8.3033 115.654 8.39201 116.07 8.48754C116.609 8.6172 117.043 8.74685 117.37 8.8765C117.698 9.00616 117.978 9.20405 118.21 9.47018C118.448 9.73632 118.568 10.0946 118.568 10.5449C118.568 10.9203 118.465 11.2649 118.261 11.5788C118.056 11.8858 117.745 12.1315 117.329 12.3158C116.913 12.4932 116.401 12.5819 115.794 12.5819ZM128.15 12.5819C127.194 12.5819 126.45 12.3089 125.918 11.763C125.386 11.2171 125.12 10.4324 125.12 9.40877V5.33489H126.143V9.36783C126.143 10.9032 126.815 11.6709 128.16 11.6709C128.815 11.6709 129.316 11.4832 129.664 11.1079C130.012 10.7258 130.186 10.1458 130.186 9.36783V5.33489H131.179V9.40877C131.179 10.4392 130.913 11.2273 130.381 11.7733C129.849 12.3123 129.105 12.5819 128.15 12.5819ZM138.396 5.33489H139.419V11.6095H143.299V12.5H138.396V5.33489ZM150.344 6.22542H147.888V5.33489H153.814V6.22542H151.358V12.5H150.344V6.22542ZM163.182 12.5819C162.458 12.5819 161.807 12.4249 161.227 12.111C160.647 11.7903 160.189 11.3502 159.855 10.7906C159.527 10.2311 159.364 9.60666 159.364 8.91745C159.364 8.22823 159.527 7.60384 159.855 7.04428C160.189 6.48472 160.647 6.04799 161.227 5.73409C161.807 5.41337 162.458 5.25301 163.182 5.25301C163.898 5.25301 164.546 5.41337 165.126 5.73409C165.706 6.04799 166.16 6.48472 166.488 7.04428C166.815 7.59702 166.979 8.22141 166.979 8.91745C166.979 9.61349 166.815 10.2413 166.488 10.8008C166.16 11.3536 165.706 11.7903 165.126 12.111C164.546 12.4249 163.898 12.5819 163.182 12.5819ZM163.182 11.6709C163.707 11.6709 164.178 11.5515 164.594 11.3126C165.017 11.0738 165.348 10.7463 165.587 10.33C165.833 9.90691 165.956 9.43606 165.956 8.91745C165.956 8.39883 165.833 7.93139 165.587 7.51513C165.348 7.09205 165.017 6.76109 164.594 6.52226C164.178 6.28342 163.707 6.164 163.182 6.164C162.656 6.164 162.178 6.28342 161.749 6.52226C161.325 6.76109 160.991 7.09205 160.745 7.51513C160.507 7.93139 160.387 8.39883 160.387 8.91745C160.387 9.43606 160.507 9.90691 160.745 10.33C160.991 10.7463 161.325 11.0738 161.749 11.3126C162.178 11.5515 162.656 11.6709 163.182 11.6709ZM178.452 12.5L176.906 10.2993C176.715 10.3129 176.565 10.3198 176.456 10.3198H174.685V12.5H173.662V5.33489H176.456C177.384 5.33489 178.114 5.55667 178.646 6.00023C179.179 6.44378 179.445 7.05452 179.445 7.83245C179.445 8.38518 179.308 8.85603 179.035 9.245C178.762 9.63396 178.373 9.91715 177.868 10.0946L179.568 12.5H178.452ZM176.425 9.44971C177.073 9.44971 177.568 9.30982 177.909 9.03004C178.251 8.75026 178.421 8.35106 178.421 7.83245C178.421 7.31383 178.251 6.91804 177.909 6.64509C177.568 6.36531 177.073 6.22542 176.425 6.22542H174.685V9.44971H176.425ZM186.216 5.33489H187.24V12.5H186.216V5.33489ZM199.068 10.7087H195.261L194.472 12.5H193.418L196.663 5.33489H197.676L200.931 12.5H199.856L199.068 10.7087ZM198.71 9.88985L197.164 6.37895L195.619 9.88985H198.71Z" fill="white"/>
<mask id="mask1" mask-type="alpha" maskUnits="userSpaceOnUse" x="212" y="0" width="4" height="18">
<path d="M215.924 0V17.2149H212.555V0H215.924Z" fill="#FF0000"/>
</mask>
<g mask="url(#mask1)">
<path fill-rule="evenodd" clip-rule="evenodd" d="M215.925 8.60744C215.925 12.5093 215.025 15.3431 214.085 17.215H212.556C213.189 15.4055 213.84 11.8304 213.84 8.60744C213.84 5.38433 213.189 1.80941 212.556 0.000244141H214.085C215.025 1.87193 215.925 4.70556 215.925 8.60744Z" fill="#D42126"/>
</g>
</svg>